#
# Bunkspeed OBJ File
# http://www.bunkspeed.com
#
mtllib wall.mtl

##########################
g |wall|Root|color
##########################
v 0 0.1403 0.45
v 0 0.1403 0
v 0 0.0003 0.45
v 0 0.0003 0
v 0.01 0.1403 0.45
v 0 0.1403 0.45
v 0.01 0.0003 0.45
v 0 0.0003 0.45
v 0.01 0.1403 -0.01
v 0.01 0.1403 0.45
v 0.01 0.0003 -0.01
v 0.01 0.0003 0.45
v -0.5 0.1403 -0.01
v 0.01 0.1403 -0.01
v -0.5 0.0003 -0.01
v 0.01 0.0003 -0.01
v -0.5 0.1403 0
v -0.5 0.1403 -0.01
v -0.5 0.0003 0
v -0.5 0.0003 -0.01
v 0 0.1403 0
v -0.5 0.1403 0
v 0 0.0003 0
v -0.5 0.0003 0
v 0 0.1403 0.45
v 0.01 0.1403 0.45
v 0 0.1403 0
v 0.01 0.1403 -0.01
v -0.5 0.1403 0
v -0.5 0.1403 -0.01
v -0.5 0.0003 0
v -0.5 0.0003 -0.01
v 0 0.0003 0
v 0.01 0.0003 -0.01
v 0 0.0003 0.45
v 0.01 0.0003 0.45
vt 0.9509804 0.6372549
vt 0.06862745 0.6372549
vt 0.9509804 0.3627451
vt 0.06862745 0.3627451
vt 1 0.6372549
vt 0.9803922 0.6372549
vt 1 0.3627451
vt 0.9803922 0.3627451
vt 0.9509804 0.6372549
vt 0.0490196 0.6372549
vt 0.9509804 0.3627451
vt 0.0490196 0.3627451
vt 1 0.6372549
vt 0 0.6372549
vt 1 0.3627451
vt 0 0.3627451
vt 0.06862745 0.6372549
vt 0.0490196 0.6372549
vt 0.06862745 0.3627451
vt 0.0490196 0.3627451
vt 0.9803922 0.6372549
vt 0 0.6372549
vt 0.9803922 0.3627451
vt 0 0.3627451
vt 0.9803922 0.04901958
vt 1 0.04901958
vt 0.9803922 0.9313725
vt 1 0.9509804
vt 0 0.9313725
vt 0 0.9509804
vt 1 0.9313725
vt 1 0.9509804
vt 0.01960784 0.9313725
vt 0 0.9509804
vt 0.01960784 0.04901958
vt 0 0.04901958
vn -1 0 0
vn -1 0 0
vn -1 0 0
vn -1 0 0
vn 0 0 1
vn 0 0 1
vn 0 0 1
vn 0 0 1
vn 1 0 -2.18726E-16
vn 1 0 -2.18726E-16
vn 1 0 -2.18726E-16
vn 1 0 -2.18726E-16
vn 0 0 -1
vn 0 0 -1
vn 0 0 -1
vn 0 0 -1
vn -1 0 0
vn -1 0 0
vn -1 0 0
vn -1 0 0
vn 0 0 1
vn 0 0 1
vn 0 0 1
vn 0 0 1
vn 0 1 0
vn 0 1 0
vn 0 1 0
vn 0 1 0
vn 0 1 0
vn 0 1 0
vn 0 -1 0
vn 0 -1 0
vn 0 -1 0
vn 0 -1 0
vn 0 -1 0
vn 0 -1 0
usemtl Mesh
f 1/1/1 2/2/2 3/3/3
f 2/2/2 4/4/4 3/3/3
f 5/5/5 6/6/6 7/7/7
f 6/6/6 8/8/8 7/7/7
f 9/9/9 10/10/10 11/11/11
f 10/10/10 12/12/12 11/11/11
f 13/13/13 14/14/14 15/15/15
f 14/14/14 16/16/16 15/15/15
f 17/17/17 18/18/18 19/19/19
f 18/18/18 20/20/20 19/19/19
f 21/21/21 22/22/22 23/23/23
f 22/22/22 24/24/24 23/23/23
f 25/25/25 26/26/26 27/27/27
f 26/26/26 28/28/28 27/27/27
f 27/27/27 28/28/28 29/29/29
f 28/28/28 30/30/30 29/29/29
f 31/31/31 32/32/32 33/33/33
f 32/32/32 34/34/34 33/33/33
f 33/33/33 34/34/34 35/35/35
f 34/34/34 36/36/36 35/35/35
##########################

