#
# Bunkspeed OBJ File
# http://www.bunkspeed.com
#
mtllib fridge.mtl

##########################
g |fridge_VISUALIZE|Root|brushed_steel
##########################
v 0.005 0.0053 -0.04
v 0.005 0.1153 -0.04
v 0.005 0.07191532 -0.03272893
v 0.005 0.07191532 0.03092451
v 0.005 0.04868468 0.03092451
v 0.005 0.04868468 -0.03092451
v 0.005 0.07191532 -0.03272893
v 0.005 0.1153 -0.04
v 0.005 0.07191532 -0.03092451
v 0.005 0.1153 -0.04
v 0.005 0.1165941 -0.03982963
v 0.005 0.07191532 -0.03092451
v 0.005 0.1178 -0.03933013
v 0.005 0.1188355 -0.03853554
v 0.005 0.1188355 -0.03853554
v 0.005 0.1196301 -0.0375
v 0.005 0.07191532 -0.03092451
v 0.005 0.1201296 -0.0362941
v 0.005 0.1203 -0.035
v 0.005 0.004005905 0.03982963
v 0.005 0.002799999 0.03933013
v 0.005 0.04868468 0.03272893
v 0.005 0.001764465 0.03853554
v 0.005 0.0009698719 0.0375
v 0.005 0.0004703701 -0.0362941
v 0.005 0.04868468 -0.03092451
v 0.005 0.0003000014 -0.035
v 0.005 0.04868468 0.03092451
v 0.005 0.0003000014 0.035
v 0.005 0.04868468 0.03272893
v 0.005 0.0004703701 0.0362941
v 0.005 0.0009698719 0.0375
v 0.005 0.04868468 -0.03092451
v 0.005 0.07191532 -0.03092451
v 0.005 0.07191532 0.03092451
v 0.005 0.1203 -0.035
v 0.005 0.07191532 0.03272893
v 0.005 0.1203 0.035
v 0.005 0.1201296 0.0362941
v 0.005 0.0004703701 -0.0362941
v 0.005 0.0009698719 -0.0375
v 0.005 0.04868468 -0.03092451
v 0.005 0.001764465 -0.03853554
v 0.005 0.002799999 -0.03933013
v 0.005 0.002799999 -0.03933013
v 0.005 0.004005905 -0.03982963
v 0.005 0.04868468 -0.03092451
v 0.005 0.0053 -0.04
v 0.005 0.04868468 -0.03272893
v 0.005 0.07191532 -0.03272893
v 0.005 0.1201296 0.0362941
v 0.005 0.1196301 0.0375
v 0.005 0.07191532 0.03272893
v 0.005 0.1188355 0.03853554
v 0.005 0.1178 0.03933013
v 0.005 0.1178 0.03933013
v 0.005 0.1165941 0.03982963
v 0.005 0.07191532 0.03272893
v 0.005 0.1153 0.04
v 0.005 0.04868468 0.03272893
v 0.005 0.0053 0.04
v 0.005 0.004005905 0.03982963
v 0 0.0053 -0.04
v 0 0.1153 -0.04
v 0.005 0.0053 -0.04
v 0.005 0.1153 -0.04
v 0 0.1203 -0.035
v 0 0.1203 0.035
v 0.005 0.1203 -0.035
v 0.005 0.1203 0.035
v 0.005 0.0053 0.04
v 0.005 0.1153 0.04
v 0 0.0053 0.04
v 0 0.1153 0.04
v 0 0.0003000014 0.035
v 0 0.0003000014 -0.035
v 0.005 0.0003000014 0.035
v 0.005 0.0003000014 -0.035
v 0 0.1153 0.04
v 0 0.1153 -0.04
v 0 0.0053 0.04
v 0 0.0053 -0.04
v 0 0.1178 0.03933013
v 0 0.1203 0.035
v 0 0.1165941 0.03982963
v 0 0.1153 0.04
v 0 0.1201296 -0.0362941
v 0 0.1196301 -0.0375
v 0 0.1153 -0.04
v 0 0.0004703701 -0.0362941
v 0 0.0003000014 -0.035
v 0 0.0053 -0.04
v 0 0.0004703701 0.0362941
v 0 0.0009698719 0.0375
v 0 0.0053 0.04
v 0 0.1178 0.03933013
v 0 0.1188355 0.03853554
v 0 0.1203 0.035
v 0 0.1196301 0.0375
v 0 0.1201296 0.0362941
v 0 0.1153 0.04
v 0 0.1203 0.035
v 0 0.1153 -0.04
v 0 0.1203 -0.035
v 0 0.1201296 -0.0362941
v 0 0.004005905 -0.03982963
v 0 0.002799999 -0.03933013
v 0 0.001764465 -0.03853554
v 0 0.0053 -0.04
v 0 0.0003000014 -0.035
v 0 0.0053 0.04
v 0 0.0003000014 0.035
v 0 0.0004703701 0.0362941
v 0 0.1196301 -0.0375
v 0 0.1188355 -0.03853554
v 0 0.1153 -0.04
v 0 0.1178 -0.03933013
v 0 0.1165941 -0.03982963
v 0 0.0009698719 0.0375
v 0 0.001764465 0.03853554
v 0 0.0053 0.04
v 0 0.002799999 0.03933013
v 0 0.004005905 0.03982963
v 0 0.004005905 -0.03982963
v 0 0.001764465 -0.03853554
v 0 0.0053 -0.04
v 0 0.0009698719 -0.0375
v 0 0.0004703701 -0.0362941
v 0.005 0.0053 0.04
v 0 0.0053 0.04
v 0 0.004005905 0.03982963
v 0.005 0.0053 0.04
v 0 0.004005905 0.03982963
v 0.005 0.004005905 0.03982963
v 0 0.002799999 0.03933013
v 0.005 0.002799999 0.03933013
v 0 0.001764465 0.03853554
v 0.005 0.001764465 0.03853554
v 0 0.0009698719 0.0375
v 0.005 0.0009698719 0.0375
v 0 0.0004703701 0.0362941
v 0.005 0.0004703701 0.0362941
v 0 0.0003000014 0.035
v 0.005 0.0003000014 0.035
v 0.005 0.0003000014 -0.035
v 0 0.0003000014 -0.035
v 0 0.0004703701 -0.0362941
v 0.005 0.0003000014 -0.035
v 0 0.0004703701 -0.0362941
v 0.005 0.0004703701 -0.0362941
v 0 0.0009698719 -0.0375
v 0.005 0.0009698719 -0.0375
v 0 0.001764465 -0.03853554
v 0.005 0.001764465 -0.03853554
v 0 0.002799999 -0.03933013
v 0.005 0.002799999 -0.03933013
v 0 0.004005905 -0.03982963
v 0.005 0.004005905 -0.03982963
v 0 0.0053 -0.04
v 0.005 0.0053 -0.04
v 0.005 0.1153 -0.04
v 0 0.1153 -0.04
v 0 0.1165941 -0.03982963
v 0.005 0.1153 -0.04
v 0 0.1165941 -0.03982963
v 0.005 0.1165941 -0.03982963
v 0 0.1178 -0.03933013
v 0.005 0.1178 -0.03933013
v 0 0.1188355 -0.03853554
v 0.005 0.1188355 -0.03853554
v 0 0.1196301 -0.0375
v 0.005 0.1196301 -0.0375
v 0 0.1201296 -0.0362941
v 0.005 0.1201296 -0.0362941
v 0 0.1203 -0.035
v 0.005 0.1203 -0.035
v 0.005 0.1203 0.035
v 0 0.1203 0.035
v 0 0.1201296 0.0362941
v 0.005 0.1203 0.035
v 0 0.1201296 0.0362941
v 0.005 0.1201296 0.0362941
v 0 0.1196301 0.0375
v 0.005 0.1196301 0.0375
v 0 0.1188355 0.03853554
v 0.005 0.1188355 0.03853554
v 0 0.1178 0.03933013
v 0.005 0.1178 0.03933013
v 0 0.1165941 0.03982963
v 0.005 0.1165941 0.03982963
v 0 0.1153 0.04
v 0.005 0.1153 0.04
v 0.008 0.07191532 0.03092451
v 0.008 0.04868468 0.03092451
v 0.005 0.07191532 0.03092451
v 0.005 0.04868468 0.03092451
v 0.008 0.07191532 0.03272893
v 0.008 0.07191532 0.03092451
v 0.005 0.07191532 0.03272893
v 0.005 0.07191532 0.03092451
v 0.008 0.04868468 0.03272893
v 0.008 0.07191532 0.03272893
v 0.005 0.04868468 0.03272893
v 0.005 0.07191532 0.03272893
v 0.008 0.04868468 0.03092451
v 0.008 0.04868468 0.03272893
v 0.005 0.04868468 0.03092451
v 0.005 0.04868468 0.03272893
v 0.008 0.07191532 0.03272893
v 0.008 0.04868468 0.03272893
v 0.008 0.07191532 0.03092451
v 0.008 0.04868468 0.03092451
v 0.008 0.04868468 -0.03092451
v 0.008 0.07191532 -0.03092451
v 0.005 0.04868468 -0.03092451
v 0.005 0.07191532 -0.03092451
v 0.008 0.04868468 -0.03272893
v 0.008 0.04868468 -0.03092451
v 0.005 0.04868468 -0.03272893
v 0.005 0.04868468 -0.03092451
v 0.008 0.07191532 -0.03272893
v 0.008 0.04868468 -0.03272893
v 0.005 0.07191532 -0.03272893
v 0.005 0.04868468 -0.03272893
v 0.008 0.07191532 -0.03092451
v 0.008 0.07191532 -0.03272893
v 0.005 0.07191532 -0.03092451
v 0.005 0.07191532 -0.03272893
v 0.008 0.04868468 -0.03272893
v 0.008 0.07191532 -0.03272893
v 0.008 0.04868468 -0.03092451
v 0.008 0.07191532 -0.03092451
vt -1.665354 -1.074803
vt 2.665354 -1.074803
vt 0.957296 -0.7885405
vt 0.957296 1.7175
vt 0.04270402 1.7175
vt 0.04270402 -0.7175004
vt 0.957296 -0.7885405
vt 2.665354 -1.074803
vt 0.957296 -0.7175004
vt 2.665354 -1.074803
vt 2.716303 -1.068096
vt 0.957296 -0.7175004
vt 2.76378 -1.04843
vt 2.804549 -1.017147
vt 2.804549 -1.017147
vt 2.835832 -0.976378
vt 0.957296 -0.7175004
vt 2.855497 -0.9289014
vt 2.862205 -0.8779528
vt -1.716303 2.068096
vt -1.76378 2.04843
vt 0.04270402 1.78854
vt -1.804549 2.017147
vt -1.835832 1.976378
vt -1.855497 -0.9289014
vt 0.04270402 -0.7175004
vt -1.862205 -0.8779528
vt 0.04270402 1.7175
vt -1.862205 1.877953
vt 0.04270402 1.78854
vt -1.855497 1.928901
vt -1.835832 1.976378
vt 0.04270402 -0.7175004
vt 0.957296 -0.7175004
vt 0.957296 1.7175
vt 2.862205 -0.8779528
vt 0.957296 1.78854
vt 2.862205 1.877953
vt 2.855497 1.928901
vt -1.855497 -0.9289014
vt -1.835832 -0.976378
vt 0.04270402 -0.7175004
vt -1.804549 -1.017147
vt -1.76378 -1.04843
vt -1.76378 -1.04843
vt -1.716303 -1.068096
vt 0.04270402 -0.7175004
vt -1.665354 -1.074803
vt 0.04270402 -0.7885405
vt 0.957296 -0.7885405
vt 2.855497 1.928901
vt 2.835832 1.976378
vt 0.957296 1.78854
vt 2.804549 2.017147
vt 2.76378 2.04843
vt 2.76378 2.04843
vt 2.716303 2.068096
vt 0.957296 1.78854
vt 2.665354 2.074803
vt 0.04270402 1.78854
vt -1.665354 2.074803
vt -1.716303 2.068096
vt 0.6574804 -1.665354
vt 0.6574804 2.665354
vt 0.4606299 -1.665354
vt 0.4606299 2.665354
vt 0.6574804 -0.8779528
vt 0.6574804 1.877953
vt 0.4606299 -0.8779528
vt 0.4606299 1.877953
vt 0.5393701 -1.665354
vt 0.5393701 2.665354
vt 0.3425197 -1.665354
vt 0.3425197 2.665354
vt 0.3425197 1.877953
vt 0.3425197 -0.8779528
vt 0.5393701 1.877953
vt 0.5393701 -0.8779528
vt -1.665354 2.074803
vt -1.665354 -1.074803
vt 2.665354 2.074803
vt 2.665354 -1.074803
vt -1.76378 2.04843
vt -1.862205 1.877953
vt -1.716303 2.068096
vt -1.665354 2.074803
vt -1.855497 -0.9289014
vt -1.835832 -0.976378
vt -1.665354 -1.074803
vt 2.855497 -0.9289014
vt 2.862205 -0.8779528
vt 2.665354 -1.074803
vt 2.855497 1.928901
vt 2.835832 1.976378
vt 2.665354 2.074803
vt -1.76378 2.04843
vt -1.804549 2.017147
vt -1.862205 1.877953
vt -1.835832 1.976378
vt -1.855497 1.928901
vt -1.665354 2.074803
vt -1.862205 1.877953
vt -1.665354 -1.074803
vt -1.862205 -0.8779528
vt -1.855497 -0.9289014
vt 2.716303 -1.068096
vt 2.76378 -1.04843
vt 2.804549 -1.017147
vt 2.665354 -1.074803
vt 2.862205 -0.8779528
vt 2.665354 2.074803
vt 2.862205 1.877953
vt 2.855497 1.928901
vt -1.835832 -0.976378
vt -1.804549 -1.017147
vt -1.665354 -1.074803
vt -1.76378 -1.04843
vt -1.716303 -1.068096
vt 2.835832 1.976378
vt 2.804549 2.017147
vt 2.665354 2.074803
vt 2.76378 2.04843
vt 2.716303 2.068096
vt 2.716303 -1.068096
vt 2.804549 -1.017147
vt 2.665354 -1.074803
vt 2.835832 -0.976378
vt 2.855497 -0.9289014
vt 0.5393701 -1.665354
vt 0.3425197 -1.665354
vt 0.3425197 -1.716303
vt 0.5393701 -1.665354
vt 0.3425197 -1.716303
vt 0.5393701 -1.716303
vt 0.3425197 -1.76378
vt 0.5393701 -1.76378
vt 0.3425197 2.017147
vt 0.5393701 2.017147
vt 0.3425197 1.976378
vt 0.5393701 1.976378
vt 0.3425197 1.928901
vt 0.5393701 1.928901
vt 0.3425197 1.877953
vt 0.5393701 1.877953
vt 0.5393701 -0.8779528
vt 0.3425197 -0.8779528
vt 0.3425197 -0.9289014
vt 0.5393701 -0.8779528
vt 0.3425197 -0.9289014
vt 0.5393701 -0.9289014
vt 0.3425197 -0.976378
vt 0.5393701 -0.976378
vt 0.3425197 -1.017147
vt 0.5393701 -1.017147
vt 0.6574804 -1.76378
vt 0.4606299 -1.76378
vt 0.6574804 -1.716303
vt 0.4606299 -1.716303
vt 0.6574804 -1.665354
vt 0.4606299 -1.665354
vt 0.4606299 2.665354
vt 0.6574804 2.665354
vt 0.6574804 2.716303
vt 0.4606299 2.665354
vt 0.6574804 2.716303
vt 0.4606299 2.716303
vt 0.6574804 2.76378
vt 0.4606299 2.76378
vt 0.6574804 -1.017147
vt 0.4606299 -1.017147
vt 0.6574804 -0.976378
vt 0.4606299 -0.976378
vt 0.6574804 -0.9289014
vt 0.4606299 -0.9289014
vt 0.6574804 -0.8779528
vt 0.4606299 -0.8779528
vt 0.4606299 1.877953
vt 0.6574804 1.877953
vt 0.6574804 1.928901
vt 0.4606299 1.877953
vt 0.6574804 1.928901
vt 0.4606299 1.928901
vt 0.6574804 1.976378
vt 0.4606299 1.976378
vt 0.6574804 2.017147
vt 0.4606299 2.017147
vt 0.3425197 2.76378
vt 0.5393701 2.76378
vt 0.3425197 2.716303
vt 0.5393701 2.716303
vt 0.3425197 2.665354
vt 0.5393701 2.665354
vt 0.3425197 0.957296
vt 0.3425197 0.04270399
vt 0.4606299 0.957296
vt 0.4606299 0.04270399
vt 0.3425197 1.78854
vt 0.3425197 1.7175
vt 0.4606299 1.78854
vt 0.4606299 1.7175
vt 0.6574804 0.04270399
vt 0.6574804 0.957296
vt 0.5393701 0.04270399
vt 0.5393701 0.957296
vt 0.6574804 1.7175
vt 0.6574804 1.78854
vt 0.5393701 1.7175
vt 0.5393701 1.78854
vt 0.957296 1.78854
vt 0.04270402 1.78854
vt 0.957296 1.7175
vt 0.04270402 1.7175
vt 0.6574804 0.04270399
vt 0.6574804 0.957296
vt 0.5393701 0.04270399
vt 0.5393701 0.957296
vt 0.6574804 -0.7885405
vt 0.6574804 -0.7175004
vt 0.5393701 -0.7885405
vt 0.5393701 -0.7175004
vt 0.3425197 0.957296
vt 0.3425197 0.04270399
vt 0.4606299 0.957296
vt 0.4606299 0.04270399
vt 0.3425197 -0.7175004
vt 0.3425197 -0.7885405
vt 0.4606299 -0.7175004
vt 0.4606299 -0.7885405
vt 0.04270402 -0.7885405
vt 0.957296 -0.7885405
vt 0.04270402 -0.7175004
vt 0.957296 -0.7175004
vn 1 0 0
vn 1 0 0
vn 1 0 0
vn 1 0 0
vn 1 0 0
vn 1 0 0
vn 1 0 0
vn 1 0 0
vn 1 0 0
vn 1 0 0
vn 1 0 0
vn 1 0 0
vn 1 0 0
vn 1 0 0
vn 1 0 0
vn 1 0 0
vn 1 0 0
vn 1 0 0
vn 1 0 0
vn 1 0 0
vn 1 0 0
vn 1 0 0
vn 1 0 0
vn 1 0 0
vn 1 0 0
vn 1 0 0
vn 1 0 0
vn 1 0 0
vn 1 0 0
vn 1 0 0
vn 1 0 0
vn 1 0 0
vn 1 0 0
vn 1 0 0
vn 1 0 0
vn 1 0 0
vn 1 0 0
vn 1 0 0
vn 1 0 0
vn 1 0 0
vn 1 0 0
vn 1 0 0
vn 1 0 0
vn 1 0 0
vn 1 0 0
vn 1 0 0
vn 1 0 0
vn 1 0 0
vn 1 0 0
vn 1 0 0
vn 1 0 0
vn 1 0 0
vn 1 0 0
vn 1 0 0
vn 1 0 0
vn 1 0 0
vn 1 0 0
vn 1 0 0
vn 1 0 0
vn 1 0 0
vn 1 0 0
vn 1 0 0
vn 0 1.156482E-16 -1
vn 0 1.156482E-16 -1
vn 0 1.156482E-16 -1
vn 0 1.156482E-16 -1
vn 0 1 0
vn 0 1 0
vn 0 1 0
vn 0 1 0
vn 0 -1.156482E-16 1
vn 0 -1.156482E-16 1
vn 0 -1.156482E-16 1
vn 0 -1.156482E-16 1
vn 0 -1 0
vn 0 -1 0
vn 0 -1 0
vn 0 -1 0
vn -1 0 0
vn -1 0 0
vn -1 0 0
vn -1 0 0
vn -1 0 0
vn -1 0 0
vn -1 0 0
vn -1 0 0
vn -1 0 0
vn -1 0 0
vn -1 0 0
vn -1 0 0
vn -1 0 0
vn -1 0 0
vn -1 0 0
vn -1 0 0
vn -1 0 0
vn -1 0 0
vn -1 0 0
vn -1 0 0
vn -1 0 0
vn -1 0 0
vn -1 0 0
vn -1 0 0
vn -1 0 0
vn -1 0 0
vn -1 0 0
vn -1 0 0
vn -1 0 0
vn -1 0 0
vn -1 0 0
vn -1 0 0
vn -1 0 0
vn -1 0 0
vn -1 0 0
vn -1 0 0
vn -1 0 0
vn -1 0 0
vn -1 0 0
vn -1 0 0
vn -1 0 0
vn -1 0 0
vn -1 0 0
vn -1 0 0
vn -1 0 0
vn -1 0 0
vn -1 0 0
vn -1 0 0
vn -1 0 0
vn -1 0 0
vn 0 -2.449294E-16 1
vn 0 -2.449294E-16 1
vn 0 -0.258819 0.9659258
vn 0 -2.449294E-16 1
vn 0 -0.258819 0.9659258
vn 0 -0.258819 0.9659258
vn 0 -0.5 0.8660254
vn 0 -0.5 0.8660254
vn 0 -0.7071068 0.7071068
vn 0 -0.7071068 0.7071068
vn 0 -0.8660254 0.5
vn 0 -0.8660254 0.5
vn 0 -0.9659258 0.258819
vn 0 -0.9659258 0.258819
vn 0 -1 -1.83697E-16
vn 0 -1 -1.83697E-16
vn 0 -1 -1.960054E-15
vn 0 -1 -1.960054E-15
vn 0 -0.9659258 -0.258819
vn 0 -1 -1.960054E-15
vn 0 -0.9659258 -0.258819
vn 0 -0.9659258 -0.258819
vn 0 -0.8660254 -0.5
vn 0 -0.8660254 -0.5
vn 0 -0.7071068 -0.7071068
vn 0 -0.7071068 -0.7071068
vn 0 -0.5 -0.8660254
vn 0 -0.5 -0.8660254
vn 0 -0.258819 -0.9659258
vn 0 -0.258819 -0.9659258
vn 0 1.224647E-16 -1
vn 0 1.224647E-16 -1
vn 0 1.224647E-16 -1
vn 0 1.224647E-16 -1
vn 0 0.258819 -0.9659258
vn 0 1.224647E-16 -1
vn 0 0.258819 -0.9659258
vn 0 0.258819 -0.9659258
vn 0 0.5 -0.8660254
vn 0 0.5 -0.8660254
vn 0 0.7071068 -0.7071068
vn 0 0.7071068 -0.7071068
vn 0 0.8660254 -0.5
vn 0 0.8660254 -0.5
vn 0 0.9659258 -0.258819
vn 0 0.9659258 -0.258819
vn 0 1 6.123234E-17
vn 0 1 6.123234E-17
vn 0 1 6.123234E-17
vn 0 1 6.123234E-17
vn 0 0.9659258 0.258819
vn 0 1 6.123234E-17
vn 0 0.9659258 0.258819
vn 0 0.9659258 0.258819
vn 0 0.8660254 0.5
vn 0 0.8660254 0.5
vn 0 0.7071068 0.7071068
vn 0 0.7071068 0.7071068
vn 0 0.5 0.8660254
vn 0 0.5 0.8660254
vn 0 0.258819 0.9659258
vn 0 0.258819 0.9659258
vn 0 0 1
vn 0 0 1
vn 0 0 -1
vn 0 0 -1
vn 0 0 -1
vn 0 0 -1
vn 0 1 0
vn 0 1 0
vn 0 1 0
vn 0 1 0
vn 0 0 1
vn 0 0 1
vn 0 0 1
vn 0 0 1
vn 0 -1 0
vn 0 -1 0
vn 0 -1 0
vn 0 -1 0
vn 1 0 0
vn 1 0 0
vn 1 0 0
vn 1 0 0
vn 0 0 1
vn 0 0 1
vn 0 0 1
vn 0 0 1
vn 0 -1 0
vn 0 -1 0
vn 0 -1 0
vn 0 -1 0
vn 0 0 -1
vn 0 0 -1
vn 0 0 -1
vn 0 0 -1
vn 0 1 0
vn 0 1 0
vn 0 1 0
vn 0 1 0
vn 1 0 0
vn 1 0 0
vn 1 0 0
vn 1 0 0
usemtl brushed_steel
f 1/1/1 2/2/2 3/3/3
f 4/4/4 5/5/5 6/6/6
f 7/7/7 8/8/8 9/9/9
f 10/10/10 11/11/11 12/12/12
f 11/11/11 13/13/13 12/12/12
f 12/12/12 13/13/13 14/14/14
f 15/15/15 16/16/16 17/17/17
f 16/16/16 18/18/18 17/17/17
f 17/17/17 18/18/18 19/19/19
f 20/20/20 21/21/21 22/22/22
f 21/21/21 23/23/23 22/22/22
f 22/22/22 23/23/23 24/24/24
f 25/25/25 26/26/26 27/27/27
f 26/26/26 28/28/28 27/27/27
f 27/27/27 28/28/28 29/29/29
f 28/28/28 30/30/30 29/29/29
f 29/29/29 30/30/30 31/31/31
f 30/30/30 32/32/32 31/31/31
f 33/33/33 34/34/34 35/35/35
f 34/34/34 36/36/36 35/35/35
f 35/35/35 36/36/36 37/37/37
f 36/36/36 38/38/38 37/37/37
f 37/37/37 38/38/38 39/39/39
f 40/40/40 41/41/41 42/42/42
f 41/41/41 43/43/43 42/42/42
f 42/42/42 43/43/43 44/44/44
f 45/45/45 46/46/46 47/47/47
f 46/46/46 48/48/48 47/47/47
f 47/47/47 48/48/48 49/49/49
f 48/48/48 50/50/50 49/49/49
f 51/51/51 52/52/52 53/53/53
f 52/52/52 54/54/54 53/53/53
f 53/53/53 54/54/54 55/55/55
f 56/56/56 57/57/57 58/58/58
f 57/57/57 59/59/59 58/58/58
f 58/58/58 59/59/59 60/60/60
f 59/59/59 61/61/61 60/60/60
f 60/60/60 61/61/61 62/62/62
f 63/63/63 64/64/64 65/65/65
f 64/64/64 66/66/66 65/65/65
f 67/67/67 68/68/68 69/69/69
f 68/68/68 70/70/70 69/69/69
f 71/71/71 72/72/72 73/73/73
f 72/72/72 74/74/74 73/73/73
f 75/75/75 76/76/76 77/77/77
f 76/76/76 78/78/78 77/77/77
f 79/79/79 80/80/80 81/81/81
f 80/80/80 82/82/82 81/81/81
f 83/83/83 84/84/84 85/85/85
f 84/84/84 86/86/86 85/85/85
f 87/87/87 88/88/88 89/89/89
f 90/90/90 91/91/91 92/92/92
f 93/93/93 94/94/94 95/95/95
f 96/96/96 97/97/97 98/98/98
f 97/97/97 99/99/99 98/98/98
f 98/98/98 99/99/99 100/100/100
f 101/101/101 102/102/102 103/103/103
f 102/102/102 104/104/104 103/103/103
f 103/103/103 104/104/104 105/105/105
f 106/106/106 107/107/107 108/108/108
f 109/109/109 110/110/110 111/111/111
f 110/110/110 112/112/112 111/111/111
f 111/111/111 112/112/112 113/113/113
f 114/114/114 115/115/115 116/116/116
f 115/115/115 117/117/117 116/116/116
f 116/116/116 117/117/117 118/118/118
f 119/119/119 120/120/120 121/121/121
f 120/120/120 122/122/122 121/121/121
f 121/121/121 122/122/122 123/123/123
f 124/124/124 125/125/125 126/126/126
f 125/125/125 127/127/127 126/126/126
f 126/126/126 127/127/127 128/128/128
f 129/129/129 130/130/130 131/131/131
f 132/132/132 133/133/133 134/134/134
f 133/133/133 135/135/135 134/134/134
f 134/134/134 135/135/135 136/136/136
f 135/135/135 137/137/137 136/136/136
f 136/136/136 137/137/137 138/138/138
f 137/137/137 139/139/139 138/138/138
f 138/138/138 139/139/139 140/140/140
f 139/139/139 141/141/141 140/140/140
f 140/140/140 141/141/141 142/142/142
f 141/141/141 143/143/143 142/142/142
f 142/142/142 143/143/143 144/144/144
f 145/145/145 146/146/146 147/147/147
f 148/148/148 149/149/149 150/150/150
f 149/149/149 151/151/151 150/150/150
f 150/150/150 151/151/151 152/152/152
f 151/151/151 153/153/153 152/152/152
f 152/152/152 153/153/153 154/154/154
f 153/153/153 155/155/155 154/154/154
f 154/154/154 155/155/155 156/156/156
f 155/155/155 157/157/157 156/156/156
f 156/156/156 157/157/157 158/158/158
f 157/157/157 159/159/159 158/158/158
f 158/158/158 159/159/159 160/160/160
f 161/161/161 162/162/162 163/163/163
f 164/164/164 165/165/165 166/166/166
f 165/165/165 167/167/167 166/166/166
f 166/166/166 167/167/167 168/168/168
f 167/167/167 169/169/169 168/168/168
f 168/168/168 169/169/169 170/170/170
f 169/169/169 171/171/171 170/170/170
f 170/170/170 171/171/171 172/172/172
f 171/171/171 173/173/173 172/172/172
f 172/172/172 173/173/173 174/174/174
f 173/173/173 175/175/175 174/174/174
f 174/174/174 175/175/175 176/176/176
f 177/177/177 178/178/178 179/179/179
f 180/180/180 181/181/181 182/182/182
f 181/181/181 183/183/183 182/182/182
f 182/182/182 183/183/183 184/184/184
f 183/183/183 185/185/185 184/184/184
f 184/184/184 185/185/185 186/186/186
f 185/185/185 187/187/187 186/186/186
f 186/186/186 187/187/187 188/188/188
f 187/187/187 189/189/189 188/188/188
f 188/188/188 189/189/189 190/190/190
f 189/189/189 191/191/191 190/190/190
f 190/190/190 191/191/191 192/192/192
f 193/193/193 194/194/194 195/195/195
f 194/194/194 196/196/196 195/195/195
f 197/197/197 198/198/198 199/199/199
f 198/198/198 200/200/200 199/199/199
f 201/201/201 202/202/202 203/203/203
f 202/202/202 204/204/204 203/203/203
f 205/205/205 206/206/206 207/207/207
f 206/206/206 208/208/208 207/207/207
f 209/209/209 210/210/210 211/211/211
f 210/210/210 212/212/212 211/211/211
f 213/213/213 214/214/214 215/215/215
f 214/214/214 216/216/216 215/215/215
f 217/217/217 218/218/218 219/219/219
f 218/218/218 220/220/220 219/219/219
f 221/221/221 222/222/222 223/223/223
f 222/222/222 224/224/224 223/223/223
f 225/225/225 226/226/226 227/227/227
f 226/226/226 228/228/228 227/227/227
f 229/229/229 230/230/230 231/231/231
f 230/230/230 232/232/232 231/231/231
##########################

