solid krabickaNaVercajg
facet normal 0.0 0.0 -1.0
outer loop
vertex 2353.35021851534 6225.95122803743 0.0
vertex 2249.35021851534 6121.95122803743 0.0
vertex 2249.35021851534 6225.95122803743 0.0
endloop
endfacet
facet normal 0.0 0.0 -1.0
outer loop
vertex 2249.35021851534 6121.95122803743 0.0
vertex 2353.35021851534 6225.95122803743 0.0
vertex 2353.35021851534 6121.95122803743 0.0
endloop
endfacet
facet normal -0.0 -0.0 1.0
outer loop
vertex 2353.35021851534 6121.95122803743 50.0
vertex 2348.35021851534 6220.95122803743 50.0
vertex 2348.35021851534 6121.95122803743 50.0
endloop
endfacet
facet normal -0.0 -0.0 1.0
outer loop
vertex 2254.35021851534 6121.95122803743 50.0
vertex 2249.35021851534 6225.95122803743 50.0
vertex 2249.35021851534 6121.95122803743 50.0
endloop
endfacet
facet normal -0.0 -0.0 1.0
outer loop
vertex 2249.35021851534 6225.95122803743 50.0
vertex 2254.35021851534 6121.95122803743 50.0
vertex 2254.35021851534 6220.95122803743 50.0
endloop
endfacet
facet normal -0.0 -0.0 1.0
outer loop
vertex 2249.35021851534 6225.95122803743 50.0
vertex 2254.35021851534 6220.95122803743 50.0
vertex 2353.35021851534 6225.95122803743 50.0
endloop
endfacet
facet normal -0.0 -0.0 1.0
outer loop
vertex 2353.35021851534 6225.95122803743 50.0
vertex 2254.35021851534 6220.95122803743 50.0
vertex 2348.35021851534 6220.95122803743 50.0
endloop
endfacet
facet normal -0.0 -0.0 1.0
outer loop
vertex 2353.35021851534 6225.95122803743 50.0
vertex 2348.35021851534 6220.95122803743 50.0
vertex 2353.35021851534 6121.95122803743 50.0
endloop
endfacet
facet normal 1.0 0.0 0.0
outer loop
vertex 2353.35021851534 6225.95122803743 0.0
vertex 2353.35021851534 6121.95122803743 50.0
vertex 2353.35021851534 6121.95122803743 0.0
endloop
endfacet
facet normal 1.0 0.0 0.0
outer loop
vertex 2353.35021851534 6121.95122803743 50.0
vertex 2353.35021851534 6225.95122803743 0.0
vertex 2353.35021851534 6225.95122803743 50.0
endloop
endfacet
facet normal -1.0 0.0 0.0
outer loop
vertex 2249.35021851534 6225.95122803743 50.0
vertex 2249.35021851534 6121.95122803743 0.0
vertex 2249.35021851534 6121.95122803743 50.0
endloop
endfacet
facet normal -1.0 0.0 0.0
outer loop
vertex 2249.35021851534 6121.95122803743 0.0
vertex 2249.35021851534 6225.95122803743 50.0
vertex 2249.35021851534 6225.95122803743 0.0
endloop
endfacet
facet normal -0.0 1.0 0.0
outer loop
vertex 2249.35021851534 6225.95122803743 50.0
vertex 2353.35021851534 6225.95122803743 0.0
vertex 2249.35021851534 6225.95122803743 0.0
endloop
endfacet
facet normal -0.0 1.0 0.0
outer loop
vertex 2353.35021851534 6225.95122803743 0.0
vertex 2249.35021851534 6225.95122803743 50.0
vertex 2353.35021851534 6225.95122803743 50.0
endloop
endfacet
facet normal 0.0 -1.0 0.0
outer loop
vertex 2353.35021851534 6121.95122803743 0.0
vertex 2351.35021851534 6121.95122803743 45.0
vertex 2249.35021851534 6121.95122803743 0.0
endloop
endfacet
facet normal 0.0 -1.0 0.0
outer loop
vertex 2351.35021851534 6121.95122803743 45.0
vertex 2353.35021851534 6121.95122803743 0.0
vertex 2353.35021851534 6121.95122803743 50.0
endloop
endfacet
facet normal 0.0 -1.0 0.0
outer loop
vertex 2351.35021851534 6121.95122803743 45.0
vertex 2353.35021851534 6121.95122803743 50.0
vertex 2351.35021851534 6121.95122803743 47.5
endloop
endfacet
facet normal 0.0 -1.0 0.0
outer loop
vertex 2351.35021851534 6121.95122803743 47.5
vertex 2353.35021851534 6121.95122803743 50.0
vertex 2348.35021851534 6121.95122803743 47.5
endloop
endfacet
facet normal 0.0 -1.0 0.0
outer loop
vertex 2348.35021851534 6121.95122803743 47.5
vertex 2353.35021851534 6121.95122803743 50.0
vertex 2348.35021851534 6121.95122803743 50.0
endloop
endfacet
facet normal 0.0 -1.0 0.0
outer loop
vertex 2254.35021851534 6121.95122803743 50.0
vertex 2251.35021851534 6121.95122803743 47.5
vertex 2254.35021851534 6121.95122803743 47.5
endloop
endfacet
facet normal 0.0 -1.0 0.0
outer loop
vertex 2249.35021851534 6121.95122803743 0.0
vertex 2251.35021851534 6121.95122803743 45.0
vertex 2249.35021851534 6121.95122803743 50.0
endloop
endfacet
facet normal 0.0 -1.0 0.0
outer loop
vertex 2251.35021851534 6121.95122803743 45.0
vertex 2249.35021851534 6121.95122803743 0.0
vertex 2351.35021851534 6121.95122803743 45.0
endloop
endfacet
facet normal 0.0 -1.0 0.0
outer loop
vertex 2249.35021851534 6121.95122803743 50.0
vertex 2251.35021851534 6121.95122803743 45.0
vertex 2251.35021851534 6121.95122803743 47.5
endloop
endfacet
facet normal 0.0 -1.0 0.0
outer loop
vertex 2249.35021851534 6121.95122803743 50.0
vertex 2251.35021851534 6121.95122803743 47.5
vertex 2254.35021851534 6121.95122803743 50.0
endloop
endfacet
facet normal 1.46745225495721e-016 -1.41806927097797e-016 1.0
outer loop
vertex 2351.35021851534 6124.95122803743 2.0
vertex 2251.35021851534 6223.95122803743 2.0
vertex 2251.35021851534 6124.95122803743 2.0
endloop
endfacet
facet normal 1.46745225495721e-016 -1.41806927097797e-016 1.0
outer loop
vertex 2251.35021851534 6223.95122803743 2.0
vertex 2351.35021851534 6124.95122803743 2.0
vertex 2351.35021851534 6223.95122803743 2.0
endloop
endfacet
facet normal 0.0 -1.0 0.0
outer loop
vertex 2348.35021851534 6220.95122803743 43.0
vertex 2254.35021851534 6220.95122803743 45.0
vertex 2254.35021851534 6220.95122803743 43.0
endloop
endfacet
facet normal 0.0 -1.0 0.0
outer loop
vertex 2254.35021851534 6220.95122803743 45.0
vertex 2348.35021851534 6220.95122803743 43.0
vertex 2348.35021851534 6220.95122803743 45.0
endloop
endfacet
facet normal 1.09725391644613e-030 1.0 1.08286712929839e-012
outer loop
vertex 2254.35021851534 6126.95122803743 45.0000000000022
vertex 2348.35021851534 6126.95122803743 43.0000000000021
vertex 2254.35021851534 6126.95122803743 43.0000000000021
endloop
endfacet
facet normal -3.4940772248523e-019 0.985426942049127 -0.170099211884437
outer loop
vertex 2348.35021851534 6126.95122803743 43.0000000000021
vertex 2254.35021851534 6126.95122803743 45.0000000000022
vertex 2348.35021851534 6126.95122803743 45.0000000000022
endloop
endfacet
facet normal -1.0 0.0 0.0
outer loop
vertex 2351.35021851534 6223.95122803743 47.5
vertex 2351.35021851534 6121.95122803743 45.0
vertex 2351.35021851534 6121.95122803743 47.5
endloop
endfacet
facet normal -1.0 0.0 0.0
outer loop
vertex 2351.35021851534 6121.95122803743 45.0
vertex 2351.35021851534 6223.95122803743 47.5
vertex 2351.35021851534 6223.95122803743 45.0
endloop
endfacet
facet normal -1.0 0.0 0.0
outer loop
vertex 2348.35021851534 6220.95122803743 45.0
vertex 2348.35021851534 6126.95122803743 43.0000000000021
vertex 2348.35021851534 6126.95122803743 45.0000000000022
endloop
endfacet
facet normal -1.0 0.0 0.0
outer loop
vertex 2348.35021851534 6126.95122803743 43.0000000000021
vertex 2348.35021851534 6220.95122803743 45.0
vertex 2348.35021851534 6220.95122803743 43.0
endloop
endfacet
facet normal -1.0 0.0 0.0
outer loop
vertex 2348.35021851534 6220.95122803743 50.0
vertex 2348.35021851534 6121.95122803743 47.5
vertex 2348.35021851534 6121.95122803743 50.0
endloop
endfacet
facet normal -1.0 0.0 0.0
outer loop
vertex 2348.35021851534 6121.95122803743 47.5
vertex 2348.35021851534 6220.95122803743 50.0
vertex 2348.35021851534 6220.95122803743 47.5
endloop
endfacet
facet normal 0.0 -1.0 0.0
outer loop
vertex 2348.35021851534 6220.95122803743 50.0
vertex 2254.35021851534 6220.95122803743 47.5
vertex 2348.35021851534 6220.95122803743 47.5
endloop
endfacet
facet normal 0.0 -1.0 0.0
outer loop
vertex 2254.35021851534 6220.95122803743 47.5
vertex 2348.35021851534 6220.95122803743 50.0
vertex 2254.35021851534 6220.95122803743 50.0
endloop
endfacet
facet normal 0.0 -1.0 0.0
outer loop
vertex 2351.35021851534 6223.95122803743 47.5
vertex 2251.35021851534 6223.95122803743 45.0
vertex 2351.35021851534 6223.95122803743 45.0
endloop
endfacet
facet normal 0.0 -1.0 0.0
outer loop
vertex 2251.35021851534 6223.95122803743 45.0
vertex 2351.35021851534 6223.95122803743 47.5
vertex 2251.35021851534 6223.95122803743 47.5
endloop
endfacet
facet normal 1.0 0.0 0.0
outer loop
vertex 2254.35021851534 6220.95122803743 47.5
vertex 2254.35021851534 6121.95122803743 50.0
vertex 2254.35021851534 6121.95122803743 47.5
endloop
endfacet
facet normal 1.0 0.0 0.0
outer loop
vertex 2254.35021851534 6121.95122803743 50.0
vertex 2254.35021851534 6220.95122803743 47.5
vertex 2254.35021851534 6220.95122803743 50.0
endloop
endfacet
facet normal 1.0 -0.0 -0.0
outer loop
vertex 2254.35021851534 6126.95122803743 43.0000000000021
vertex 2254.35021851534 6220.95122803743 45.0
vertex 2254.35021851534 6126.95122803743 45.0000000000022
endloop
endfacet
facet normal 1.0 -0.0 -0.0
outer loop
vertex 2254.35021851534 6220.95122803743 45.0
vertex 2254.35021851534 6126.95122803743 43.0000000000021
vertex 2254.35021851534 6220.95122803743 43.0
endloop
endfacet
facet normal 1.0 -0.0 -0.0
outer loop
vertex 2251.35021851534 6223.95122803743 45.0
vertex 2251.35021851534 6121.95122803743 47.5
vertex 2251.35021851534 6121.95122803743 45.0
endloop
endfacet
facet normal 1.0 -0.0 -0.0
outer loop
vertex 2251.35021851534 6121.95122803743 47.5
vertex 2251.35021851534 6223.95122803743 45.0
vertex 2251.35021851534 6223.95122803743 47.5
endloop
endfacet
facet normal 0.0 0.0 -1.0
outer loop
vertex 2251.35021851534 6223.95122803743 47.5
vertex 2254.35021851534 6220.95122803743 47.5
vertex 2251.35021851534 6121.95122803743 47.5
endloop
endfacet
facet normal 0.0 0.0 -1.0
outer loop
vertex 2254.35021851534 6220.95122803743 47.5
vertex 2251.35021851534 6223.95122803743 47.5
vertex 2351.35021851534 6223.95122803743 47.5
endloop
endfacet
facet normal 0.0 0.0 -1.0
outer loop
vertex 2254.35021851534 6220.95122803743 47.5
vertex 2351.35021851534 6223.95122803743 47.5
vertex 2348.35021851534 6220.95122803743 47.5
endloop
endfacet
facet normal 0.0 0.0 -1.0
outer loop
vertex 2348.35021851534 6220.95122803743 47.5
vertex 2351.35021851534 6223.95122803743 47.5
vertex 2348.35021851534 6121.95122803743 47.5
endloop
endfacet
facet normal 0.0 0.0 -1.0
outer loop
vertex 2348.35021851534 6121.95122803743 47.5
vertex 2351.35021851534 6223.95122803743 47.5
vertex 2351.35021851534 6121.95122803743 47.5
endloop
endfacet
facet normal 0.0 0.0 -1.0
outer loop
vertex 2254.35021851534 6121.95122803743 47.5
vertex 2251.35021851534 6121.95122803743 47.5
vertex 2254.35021851534 6220.95122803743 47.5
endloop
endfacet
facet normal -0.0 -0.0 1.0
outer loop
vertex 2251.35021851534 6121.95122803743 45.0
vertex 2254.35021851534 6126.95122803743 45.0000000000022
vertex 2251.35021851534 6223.95122803743 45.0
endloop
endfacet
facet normal -0.0 -0.0 1.0
outer loop
vertex 2254.35021851534 6126.95122803743 45.0000000000022
vertex 2251.35021851534 6121.95122803743 45.0
vertex 2351.35021851534 6121.95122803743 45.0
endloop
endfacet
facet normal -0.0 -0.0 1.0
outer loop
vertex 2254.35021851534 6126.95122803743 45.0000000000022
vertex 2351.35021851534 6121.95122803743 45.0
vertex 2348.35021851534 6126.95122803743 45.0000000000022
endloop
endfacet
facet normal -0.0 -0.0 1.0
outer loop
vertex 2348.35021851534 6126.95122803743 45.0000000000022
vertex 2351.35021851534 6121.95122803743 45.0
vertex 2348.35021851534 6220.95122803743 45.0
endloop
endfacet
facet normal -0.0 -0.0 1.0
outer loop
vertex 2251.35021851534 6223.95122803743 45.0
vertex 2254.35021851534 6220.95122803743 45.0
vertex 2351.35021851534 6223.95122803743 45.0
endloop
endfacet
facet normal -0.0 -0.0 1.0
outer loop
vertex 2254.35021851534 6220.95122803743 45.0
vertex 2251.35021851534 6223.95122803743 45.0
vertex 2254.35021851534 6126.95122803743 45.0000000000022
endloop
endfacet
facet normal -0.0 -0.0 1.0
outer loop
vertex 2351.35021851534 6223.95122803743 45.0
vertex 2254.35021851534 6220.95122803743 45.0
vertex 2348.35021851534 6220.95122803743 45.0
endloop
endfacet
facet normal -0.0 -0.0 1.0
outer loop
vertex 2351.35021851534 6223.95122803743 45.0
vertex 2348.35021851534 6220.95122803743 45.0
vertex 2351.35021851534 6121.95122803743 45.0
endloop
endfacet
facet normal -1.0 0.0 0.0
outer loop
vertex 2351.35021851534 6124.95122803743 36.6540183378428
vertex 2351.35021851534 6223.95122803743 2.0
vertex 2351.35021851534 6124.95122803743 2.0
endloop
endfacet
facet normal -1.0 0.0 0.0
outer loop
vertex 2351.35021851534 6223.95122803743 2.0
vertex 2351.35021851534 6124.95122803743 36.6540183378428
vertex 2351.35021851534 6223.95122803743 36.6540183378428
endloop
endfacet
facet normal 1.0 -0.0 -0.0
outer loop
vertex 2251.35021851534 6223.95122803743 2.0
vertex 2251.35021851534 6124.95122803743 36.6540183378428
vertex 2251.35021851534 6124.95122803743 2.0
endloop
endfacet
facet normal 1.0 -0.0 -0.0
outer loop
vertex 2251.35021851534 6124.95122803743 36.6540183378428
vertex 2251.35021851534 6223.95122803743 2.0
vertex 2251.35021851534 6223.95122803743 36.6540183378428
endloop
endfacet
facet normal 6.32967317564817e-015 0.99173198427695 -0.128326425034379
outer loop
vertex 2251.35021851534 6124.95122803743 36.6540183378428
vertex 2351.35021851534 6124.95122803743 2.0
vertex 2251.35021851534 6124.95122803743 2.0
endloop
endfacet
facet normal 1.08286712929839e-014 1.0 -3.12479527984748e-014
outer loop
vertex 2351.35021851534 6124.95122803743 2.0
vertex 2251.35021851534 6124.95122803743 36.6540183378428
vertex 2351.35021851534 6124.95122803743 36.6540183378428
endloop
endfacet
facet normal 0.0 -1.0 0.0
outer loop
vertex 2351.35021851534 6223.95122803743 36.6540183378428
vertex 2251.35021851534 6223.95122803743 2.0
vertex 2351.35021851534 6223.95122803743 2.0
endloop
endfacet
facet normal 0.0 -1.0 0.0
outer loop
vertex 2251.35021851534 6223.95122803743 2.0
vertex 2351.35021851534 6223.95122803743 36.6540183378428
vertex 2251.35021851534 6223.95122803743 36.6540183378428
endloop
endfacet
facet normal 1.30301770140618e-017 -0.904067785995905 -0.427389094765488
outer loop
vertex 2348.35021851534 6220.95122803743 43.0
vertex 2251.35021851534 6223.95122803743 36.6540183378428
vertex 2351.35021851534 6223.95122803743 36.6540183378428
endloop
endfacet
facet normal 1.30301770140618e-017 -0.904067785995905 -0.427389094765488
outer loop
vertex 2251.35021851534 6223.95122803743 36.6540183378428
vertex 2348.35021851534 6220.95122803743 43.0
vertex 2254.35021851534 6220.95122803743 43.0
endloop
endfacet
facet normal 0.904067785995972 -4.66898727980091e-015 -0.427389094765345
outer loop
vertex 2251.35021851534 6223.95122803743 36.6540183378428
vertex 2254.35021851534 6126.95122803743 43.0000000000021
vertex 2251.35021851534 6124.95122803743 36.6540183378428
endloop
endfacet
facet normal 0.904067785995972 -4.66898727980091e-015 -0.427389094765345
outer loop
vertex 2254.35021851534 6126.95122803743 43.0000000000021
vertex 2251.35021851534 6223.95122803743 36.6540183378428
vertex 2254.35021851534 6220.95122803743 43.0
endloop
endfacet
facet normal -3.49407722485224e-019 0.985426942049128 -0.170099211884434
outer loop
vertex 2254.35021851534 6126.95122803743 43.0000000000021
vertex 2351.35021851534 6124.95122803743 36.6540183378428
vertex 2251.35021851534 6124.95122803743 36.6540183378428
endloop
endfacet
facet normal 6.32967317564838e-015 0.991731984276951 -0.128326425034373
outer loop
vertex 2351.35021851534 6124.95122803743 36.6540183378428
vertex 2254.35021851534 6126.95122803743 43.0000000000021
vertex 2348.35021851534 6126.95122803743 43.0000000000021
endloop
endfacet
facet normal -0.904067785995933 -4.65602262711409e-015 -0.427389094765429
outer loop
vertex 2348.35021851534 6126.95122803743 43.0000000000021
vertex 2351.35021851534 6223.95122803743 36.6540183378428
vertex 2351.35021851534 6124.95122803743 36.6540183378428
endloop
endfacet
facet normal -0.904067785995933 -4.65602262711409e-015 -0.427389094765429
outer loop
vertex 2351.35021851534 6223.95122803743 36.6540183378428
vertex 2348.35021851534 6126.95122803743 43.0000000000021
vertex 2348.35021851534 6220.95122803743 43.0
endloop
endfacet
endsolid krabickaNaVercajg
