#
# Bunkspeed OBJ File
# http://www.bunkspeed.com
#
mtllib board.mtl

##########################
g |board_VISUALIZE|Root|color
##########################
v 0.5 0.6639364 0.02
v 0.5 0.0002999902 0.02
v 0.5 0.6639364 0
v 0.5 0.0002999902 0
v -0.5 0.6639364 0.02
v 0.5 0.6639364 0.02
v -0.5 0.6639364 0
v 0.5 0.6639364 0
v -0.5 0.0002999902 0.02
v -0.5 0.6639364 0.02
v -0.5 0.0002999902 0
v -0.5 0.6639364 0
v 0.5 0.0002999902 0.02
v -0.5 0.0002999902 0.02
v 0.5 0.0002999902 0
v -0.5 0.0002999902 0
v -0.4640761 0.6306799 0.02
v -0.5 0.6639364 0.02
v -0.4640761 0.03355646 0.02
v -0.5 0.0002999902 0.02
v 0.4640761 0.03355646 0.02
v 0.5 0.0002999902 0.02
v 0.4640761 0.6306799 0.02
v 0.5 0.6639364 0.02
v -0.4640761 0.6306799 0.02
v -0.5 0.6639364 0.02
v -0.5 0.0002999902 0
v -0.5 0.6639364 0
v 0.5 0.0002999902 0
v 0.5 0.6639364 0
v 0.4540761 0.04355645 0.01
v 0.4540761 0.6206799 0.01
v -0.4540761 0.04355645 0.01
v -0.4540761 0.6206799 0.01
v -0.4640761 0.6306799 0.02
v -0.4540761 0.6206799 0.01
v 0.4640761 0.6306799 0.02
v 0.4540761 0.6206799 0.01
v -0.4640761 0.03355646 0.02
v -0.4540761 0.04355645 0.01
v -0.4640761 0.6306799 0.02
v -0.4540761 0.6206799 0.01
v 0.4540761 0.04355645 0.01
v 0.4640761 0.03355646 0.02
v 0.4540761 0.6206799 0.01
v 0.4640761 0.6306799 0.02
v 0.4640761 0.03355646 0.02
v 0.4540761 0.04355645 0.01
v -0.4640761 0.03355646 0.02
v -0.4540761 0.04355645 0.01
vt 0.49 0.8318182
vt 0.49 0.1681818
vt 0.51 0.8318182
vt 0.51 0.1681818
vt 0 0.49
vt 1 0.49
vt 0 0.51
vt 1 0.51
vt 0.51 0.1681818
vt 0.51 0.8318182
vt 0.49 0.1681818
vt 0.49 0.8318182
vt 0 0.49
vt 1 0.49
vt 0 0.51
vt 1 0.51
vt 0.0359239 0.7985617
vt 0 0.8318182
vt 0.0359239 0.2014383
vt 0 0.1681818
vt 0.9640761 0.2014383
vt 1 0.1681818
vt 0.9640761 0.7985617
vt 1 0.8318182
vt 0.0359239 0.7985617
vt 0 0.8318182
vt 1 0.1681818
vt 1 0.8318182
vt 0 0.1681818
vt 0 0.8318182
vt 0.9540761 0.2114383
vt 0.9540761 0.7885617
vt 0.04592392 0.2114383
vt 0.04592392 0.7885617
vt 0.0359239 0.7985617
vt 0.04592392 0.7885617
vt 0.9640761 0.7985617
vt 0.9540761 0.7885617
vt 0.0359239 0.2014383
vt 0.04592392 0.2114383
vt 0.0359239 0.7985617
vt 0.04592392 0.7885617
vt 0.9540761 0.2114383
vt 0.9640761 0.2014383
vt 0.9540761 0.7885617
vt 0.9640761 0.7985617
vt 0.9640761 0.2014383
vt 0.9540761 0.2114383
vt 0.0359239 0.2014383
vt 0.04592392 0.2114383
vn 1 0 0
vn 1 0 0
vn 1 0 0
vn 1 0 0
vn 0 1 0
vn 0 1 0
vn 0 1 0
vn 0 1 0
vn -1 0 0
vn -1 0 0
vn -1 0 0
vn -1 0 0
vn 0 -1 0
vn 0 -1 0
vn 0 -1 0
vn 0 -1 0
vn 0 0 1
vn 0 0 1
vn 0 0 1
vn 0 0 1
vn 0 0 1
vn 0 0 1
vn 0 0 1
vn 0 0 1
vn 0 0 1
vn 0 0 1
vn 0 0 -1
vn 0 0 -1
vn 0 0 -1
vn 0 0 -1
vn 0 0 1
vn 0 0 1
vn 0 0 1
vn 0 0 1
vn 0 -0.7071068 0.7071068
vn 0 -0.7071068 0.7071068
vn 0 -0.7071068 0.7071068
vn 0 -0.7071068 0.7071068
vn 0.7071068 0 0.7071068
vn 0.7071068 0 0.7071068
vn 0.7071068 0 0.7071068
vn 0.7071068 0 0.7071068
vn -0.7071068 0 0.7071068
vn -0.7071068 0 0.7071068
vn -0.7071068 0 0.7071068
vn -0.7071068 0 0.7071068
vn 0 0.7071068 0.7071068
vn 0 0.7071068 0.7071068
vn 0 0.7071068 0.7071068
vn 0 0.7071068 0.7071068
usemtl Cork
f 1/1/1 2/2/2 3/3/3
f 2/2/2 4/4/4 3/3/3
f 5/5/5 6/6/6 7/7/7
f 6/6/6 8/8/8 7/7/7
f 9/9/9 10/10/10 11/11/11
f 10/10/10 12/12/12 11/11/11
f 13/13/13 14/14/14 15/15/15
f 14/14/14 16/16/16 15/15/15
f 17/17/17 18/18/18 19/19/19
f 18/18/18 20/20/20 19/19/19
f 19/19/19 20/20/20 21/21/21
f 20/20/20 22/22/22 21/21/21
f 21/21/21 22/22/22 23/23/23
f 22/22/22 24/24/24 23/23/23
f 23/23/23 24/24/24 25/25/25
f 24/24/24 26/26/26 25/25/25
f 27/27/27 28/28/28 29/29/29
f 28/28/28 30/30/30 29/29/29
f 31/31/31 32/32/32 33/33/33
f 32/32/32 34/34/34 33/33/33
f 35/35/35 36/36/36 37/37/37
f 36/36/36 38/38/38 37/37/37
f 39/39/39 40/40/40 41/41/41
f 40/40/40 42/42/42 41/41/41
f 43/43/43 44/44/44 45/45/45
f 44/44/44 46/46/46 45/45/45
f 47/47/47 48/48/48 49/49/49
f 48/48/48 50/50/50 49/49/49
##########################

