#
# Bunkspeed OBJ File
# http://www.bunkspeed.com
#
mtllib door.mtl

##########################
g |door|Root|satin_finished_maple_2d
##########################
v -0.038 0.0733 0
v -0.038 0.01229999 0
v -0.05 0.0002999976 0
v -0.0045 0.01229999 0
v 0.05 0.0002999976 0
v -0.05 0.1603 0
v -0.038 0.1483 0
v -0.038 0.0873 0
v 0.038 0.0733 0
v 0.05 0.1603 0
v 0.05 0.0002999976 0
v -0.0045 0.0733 0
v 0.0045 0.0733 0
v -0.0045 0.01229999 0
v 0.0045 0.01229999 0
v 0.05 0.0002999976 0
v 0.038 0.01229999 0
v 0.038 0.0733 0
v 0.0045 0.0873 0
v -0.0045 0.0873 0
v 0.0045 0.1483 0
v -0.0045 0.1483 0
v -0.038 0.1483 0
v -0.05 0.1603 0
v -0.0045 0.1483 0
v 0.05 0.1603 0
v 0.0045 0.1483 0
v -0.05 0.0002999976 0
v -0.05 0.1603 0
v -0.038 0.0733 0
v -0.038 0.0873 0
v -0.0045 0.0733 0
v -0.0045 0.0873 0
v 0.0045 0.0733 0
v 0.0045 0.0873 0
v 0.038 0.0733 0
v 0.038 0.0873 0
v 0.05 0.1603 0
v 0.038 0.1483 0
v 0.0045 0.1483 0
v 0.0045 0.0733 0.01
v 0.038 0.0733 0.01
v 0.038 0.0873 0.01
v 0.0045 0.1483 0.01
v -0.0045 0.1483 0.01
v 0.0045 0.0873 0.01
v -0.0045 0.0873 0.01
v 0.0045 0.01229999 0.01
v -0.05 0.0002999976 0.01
v 0.05 0.0002999976 0.01
v -0.038 0.0873 0.01
v -0.038 0.1483 0.01
v -0.05 0.1603 0.01
v -0.0045 0.1483 0.01
v 0.05 0.1603 0.01
v 0.0045 0.1483 0.01
v 0.038 0.1483 0.01
v 0.038 0.1483 0.01
v 0.038 0.0873 0.01
v 0.05 0.1603 0.01
v 0.038 0.0733 0.01
v 0.05 0.0002999976 0.01
v 0.038 0.01229999 0.01
v 0.0045 0.01229999 0.01
v -0.05 0.1603 0.01
v -0.05 0.0002999976 0.01
v -0.038 0.0873 0.01
v -0.038 0.0733 0.01
v -0.0045 0.0873 0.01
v -0.0045 0.0733 0.01
v 0.0045 0.0873 0.01
v 0.038 0.0873 0.01
v 0.0045 0.0873 0.01
v 0.0045 0.0733 0.01
v -0.0045 0.0733 0.01
v 0.0045 0.01229999 0.01
v -0.0045 0.01229999 0.01
v -0.05 0.0002999976 0.01
v -0.038 0.01229999 0.01
v -0.038 0.0733 0.01
v 0.05 0.1603 0.01
v 0.05 0.0002999976 0.01
v 0.05 0.1603 0
v 0.05 0.0002999976 0
v -0.05 0.1603 0.01
v 0.05 0.1603 0.01
v -0.05 0.1603 0
v 0.05 0.1603 0
v -0.05 0.0002999976 0.01
v -0.05 0.1603 0.01
v -0.05 0.0002999976 0
v -0.05 0.1603 0
v 0.05 0.0002999976 0.01
v -0.05 0.0002999976 0.01
v 0.05 0.0002999976 0
v -0.05 0.0002999976 0
v 0.0075 0.1453 0.007
v 0.0075 0.09029999 0.007
v 0.035 0.1453 0.007
v 0.035 0.09029999 0.007
v 0.0075 0.0703 0.007
v 0.0075 0.0153 0.007
v 0.035 0.0703 0.007
v 0.035 0.0153 0.007
v -0.0075 0.0153 0.007
v -0.0075 0.0703 0.007
v -0.035 0.0153 0.007
v -0.035 0.0703 0.007
v -0.0075 0.09029999 0.007
v -0.0075 0.1453 0.007
v -0.035 0.09029999 0.007
v -0.035 0.1453 0.007
v 0.0075 0.09029999 0.003
v 0.0075 0.1453 0.003
v 0.035 0.09029999 0.003
v 0.035 0.1453 0.003
v 0.0075 0.0153 0.003
v 0.0075 0.0703 0.003
v 0.035 0.0153 0.003
v 0.035 0.0703 0.003
v -0.0075 0.0703 0.003
v -0.0075 0.0153 0.003
v -0.035 0.0703 0.003
v -0.035 0.0153 0.003
v -0.0075 0.1453 0.003
v -0.0075 0.09029999 0.003
v -0.035 0.1453 0.003
v -0.035 0.09029999 0.003
v -0.0075 0.0153 0.003
v -0.0045 0.01229999 -4.336809E-18
v -0.035 0.0153 0.003
v -0.038 0.01229999 -4.336809E-18
v -0.0075 0.0703 0.003
v -0.0045 0.0733 0
v -0.0075 0.0153 0.003
v -0.0045 0.01229999 0
v -0.038 0.0733 -8.673617E-19
v -0.035 0.0703 0.003
v -0.038 0.01229999 3.035766E-18
v -0.035 0.0153 0.003
v -0.035 0.0703 0.003
v -0.038 0.0733 8.673617E-19
v -0.0075 0.0703 0.003
v -0.0045 0.0733 4.336809E-19
v -0.038 0.0733 0.01
v -0.035 0.0703 0.007
v -0.0045 0.0733 0.01
v -0.0075 0.0703 0.007
v -0.038 0.01229999 0.01
v -0.035 0.0153 0.007
v -0.038 0.0733 0.01
v -0.035 0.0703 0.007
v -0.0075 0.0153 0.007
v -0.0045 0.01229999 0.01
v -0.0075 0.0703 0.007
v -0.0045 0.0733 0.01
v -0.0045 0.01229999 0.01
v -0.0075 0.0153 0.007
v -0.038 0.01229999 0.01
v -0.035 0.0153 0.007
v 0.0075 0.1453 0.003
v 0.0045 0.1483 -4.336809E-18
v 0.035 0.1453 0.003
v 0.038 0.1483 -4.336809E-18
v 0.0075 0.09029999 0.003
v 0.0045 0.0873 0
v 0.0075 0.1453 0.003
v 0.0045 0.1483 0
v 0.038 0.0873 -8.673617E-19
v 0.035 0.09029999 0.003
v 0.038 0.1483 3.035766E-18
v 0.035 0.1453 0.003
v 0.035 0.09029999 0.003
v 0.038 0.0873 8.673617E-19
v 0.0075 0.09029999 0.003
v 0.0045 0.0873 4.336809E-19
v -0.038 0.0873 4.336809E-19
v -0.035 0.09029999 0.003
v -0.0045 0.0873 4.336809E-19
v -0.0075 0.09029999 0.003
v -0.038 0.1483 8.673617E-19
v -0.035 0.1453 0.003
v -0.038 0.0873 8.239937E-18
v -0.035 0.09029999 0.003
v -0.0075 0.1453 0.003
v -0.0045 0.1483 0
v -0.0075 0.09029999 0.003
v -0.0045 0.0873 8.673617E-19
v -0.0045 0.1483 8.673617E-19
v -0.0075 0.1453 0.003
v -0.038 0.1483 8.673617E-19
v -0.035 0.1453 0.003
v 0.038 0.0733 4.336809E-19
v 0.035 0.0703 0.003
v 0.0045 0.0733 4.336809E-19
v 0.0075 0.0703 0.003
v 0.038 0.01229999 8.673617E-19
v 0.035 0.0153 0.003
v 0.038 0.0733 8.239937E-18
v 0.035 0.0703 0.003
v 0.0075 0.0153 0.003
v 0.0045 0.01229999 0
v 0.0075 0.0703 0.003
v 0.0045 0.0733 8.673617E-19
v 0.0045 0.01229999 8.673617E-19
v 0.0075 0.0153 0.003
v 0.038 0.01229999 8.673617E-19
v 0.035 0.0153 0.003
v 0.0075 0.0153 0.007
v 0.0045 0.01229999 0.01
v 0.035 0.0153 0.007
v 0.038 0.01229999 0.01
v 0.0075 0.0703 0.007
v 0.0045 0.0733 0.01
v 0.0075 0.0153 0.007
v 0.0045 0.01229999 0.01
v 0.038 0.0733 0.01
v 0.035 0.0703 0.007
v 0.038 0.01229999 0.01
v 0.035 0.0153 0.007
v 0.035 0.0703 0.007
v 0.038 0.0733 0.01
v 0.0075 0.0703 0.007
v 0.0045 0.0733 0.01
v 0.038 0.0873 0.01
v 0.035 0.09029999 0.007
v 0.0045 0.0873 0.01
v 0.0075 0.09029999 0.007
v 0.038 0.1483 0.01
v 0.035 0.1453 0.007
v 0.038 0.0873 0.01
v 0.035 0.09029999 0.007
v 0.0075 0.1453 0.007
v 0.0045 0.1483 0.01
v 0.0075 0.09029999 0.007
v 0.0045 0.0873 0.01
v 0.0045 0.1483 0.01
v 0.0075 0.1453 0.007
v 0.038 0.1483 0.01
v 0.035 0.1453 0.007
v -0.0075 0.1453 0.007
v -0.0045 0.1483 0.01
v -0.035 0.1453 0.007
v -0.038 0.1483 0.01
v -0.0075 0.09029999 0.007
v -0.0045 0.0873 0.01
v -0.0075 0.1453 0.007
v -0.0045 0.1483 0.01
v -0.038 0.0873 0.01
v -0.035 0.09029999 0.007
v -0.038 0.1483 0.01
v -0.035 0.1453 0.007
v -0.035 0.09029999 0.007
v -0.038 0.0873 0.01
v -0.0075 0.09029999 0.007
v -0.0045 0.0873 0.01
vt 1.820719 3.029097
vt 1.820719 2.343174
vt 1.955655 2.208238
vt 1.444024 2.343174
vt 0.8311909 2.208238
vt 1.955655 4.00738
vt 1.820719 3.872444
vt 1.820719 3.186522
vt 0.9661266 3.029097
vt 0.8311909 4.00738
vt 0.8311909 2.208238
vt 1.444024 3.029097
vt 1.342822 3.029097
vt 1.444024 2.343174
vt 1.342822 2.343174
vt 0.8311909 2.208238
vt 0.9661266 2.343174
vt 0.9661266 3.029097
vt 1.342822 3.186522
vt 1.444024 3.186522
vt 1.342822 3.872444
vt 1.444024 3.872444
vt 1.820719 3.872444
vt 1.955655 4.00738
vt 1.444024 3.872444
vt 0.8311909 4.00738
vt 1.342822 3.872444
vt 1.955655 2.208238
vt 1.955655 4.00738
vt 1.820719 3.029097
vt 1.820719 3.186522
vt 1.444024 3.029097
vt 1.444024 3.186522
vt 1.342822 3.029097
vt 1.342822 3.186522
vt 0.9661266 3.029097
vt 0.9661266 3.186522
vt 0.8311909 4.00738
vt 0.9661266 3.872444
vt 1.342822 3.872444
vt 1.444024 3.029097
vt 1.820719 3.029097
vt 1.820719 3.186522
vt 1.444024 3.872444
vt 1.342822 3.872444
vt 1.444024 3.186522
vt 1.342822 3.186522
vt 1.444024 2.343174
vt 0.8311909 2.208238
vt 1.955655 2.208238
vt 0.9661266 3.186522
vt 0.9661266 3.872444
vt 0.8311909 4.00738
vt 1.342822 3.872444
vt 1.955655 4.00738
vt 1.444024 3.872444
vt 1.820719 3.872444
vt 1.820719 3.872444
vt 1.820719 3.186522
vt 1.955655 4.00738
vt 1.820719 3.029097
vt 1.955655 2.208238
vt 1.820719 2.343174
vt 1.444024 2.343174
vt 0.8311909 4.00738
vt 0.8311909 2.208238
vt 0.9661266 3.186522
vt 0.9661266 3.029097
vt 1.342822 3.186522
vt 1.342822 3.029097
vt 1.444024 3.186522
vt 1.820719 3.186522
vt 1.444024 3.186522
vt 1.444024 3.029097
vt 1.342822 3.029097
vt 1.444024 2.343174
vt 1.342822 2.343174
vt 0.8311909 2.208238
vt 0.9661266 2.343174
vt 0.9661266 3.029097
vt 2.292994 3.164032
vt 0.4938518 3.164032
vt 2.292994 3.051586
vt 0.4938518 3.051586
vt 1.955655 3.164032
vt 0.8311909 3.164032
vt 1.955655 3.051586
vt 0.8311909 3.051586
vt 2.292994 3.164032
vt 0.4938518 3.164032
vt 2.292994 3.051586
vt 0.4938518 3.051586
vt 1.955655 3.164032
vt 0.8311909 3.164032
vt 1.955655 3.051586
vt 0.8311909 3.051586
vt 1.477757 3.83871
vt 1.477757 3.220255
vt 1.786985 3.83871
vt 1.786985 3.220255
vt 1.477757 2.995363
vt 1.477757 2.376908
vt 1.786985 2.995363
vt 1.786985 2.376908
vt 1.309088 2.376908
vt 1.309088 2.995363
vt 0.9998604 2.376908
vt 0.9998604 2.995363
vt 1.309088 3.220255
vt 1.309088 3.83871
vt 0.9998604 3.220255
vt 0.9998604 3.83871
vt 1.309088 3.220255
vt 1.309088 3.83871
vt 0.9998604 3.220255
vt 0.9998604 3.83871
vt 1.309088 2.376908
vt 1.309088 2.995363
vt 0.9998604 2.376908
vt 0.9998604 2.995363
vt 1.477757 2.995363
vt 1.477757 2.376908
vt 1.786985 2.995363
vt 1.786985 2.376908
vt 1.477757 3.83871
vt 1.477757 3.220255
vt 1.786985 3.83871
vt 1.786985 3.220255
vt 1.477757 3.08532
vt 1.444024 3.051586
vt 1.786985 3.08532
vt 1.820719 3.051586
vt 1.477757 2.995363
vt 1.444024 3.029097
vt 1.477757 2.376908
vt 1.444024 2.343174
vt 1.820719 3.029097
vt 1.786985 2.995363
vt 1.820719 2.343174
vt 1.786985 2.376908
vt 0.9998604 3.08532
vt 0.9661266 3.051586
vt 1.309088 3.08532
vt 1.342822 3.051586
vt 0.9661266 3.164032
vt 0.9998604 3.130298
vt 1.342822 3.164032
vt 1.309088 3.130298
vt 0.9661266 2.343174
vt 0.9998604 2.376908
vt 0.9661266 3.029097
vt 0.9998604 2.995363
vt 1.309088 2.376908
vt 1.342822 2.343174
vt 1.309088 2.995363
vt 1.342822 3.029097
vt 1.444024 3.164032
vt 1.477757 3.130298
vt 1.820719 3.164032
vt 1.786985 3.130298
vt 1.477757 3.08532
vt 1.444024 3.051586
vt 1.786985 3.08532
vt 1.820719 3.051586
vt 1.309088 3.220255
vt 1.342822 3.186522
vt 1.309088 3.83871
vt 1.342822 3.872444
vt 0.9661266 3.186522
vt 0.9998604 3.220255
vt 0.9661266 3.872444
vt 0.9998604 3.83871
vt 0.9998604 3.08532
vt 0.9661266 3.051586
vt 1.309088 3.08532
vt 1.342822 3.051586
vt 1.820719 3.051586
vt 1.786985 3.08532
vt 1.444024 3.051586
vt 1.477757 3.08532
vt 1.820719 3.872444
vt 1.786985 3.83871
vt 1.820719 3.186522
vt 1.786985 3.220255
vt 1.477757 3.83871
vt 1.444024 3.872444
vt 1.477757 3.220255
vt 1.444024 3.186522
vt 1.342822 3.051586
vt 1.309088 3.08532
vt 0.9661266 3.051586
vt 0.9998604 3.08532
vt 1.820719 3.051586
vt 1.786985 3.08532
vt 1.444024 3.051586
vt 1.477757 3.08532
vt 0.9661266 2.343174
vt 0.9998604 2.376908
vt 0.9661266 3.029097
vt 0.9998604 2.995363
vt 1.309088 2.376908
vt 1.342822 2.343174
vt 1.309088 2.995363
vt 1.342822 3.029097
vt 1.342822 3.051586
vt 1.309088 3.08532
vt 0.9661266 3.051586
vt 0.9998604 3.08532
vt 1.309088 3.130298
vt 1.342822 3.164032
vt 0.9998604 3.130298
vt 0.9661266 3.164032
vt 1.477757 2.995363
vt 1.444024 3.029097
vt 1.477757 2.376908
vt 1.444024 2.343174
vt 1.820719 3.029097
vt 1.786985 2.995363
vt 1.820719 2.343174
vt 1.786985 2.376908
vt 1.786985 3.130298
vt 1.820719 3.164032
vt 1.477757 3.130298
vt 1.444024 3.164032
vt 0.9661266 3.164032
vt 0.9998604 3.130298
vt 1.342822 3.164032
vt 1.309088 3.130298
vt 1.820719 3.872444
vt 1.786985 3.83871
vt 1.820719 3.186522
vt 1.786985 3.220255
vt 1.477757 3.83871
vt 1.444024 3.872444
vt 1.477757 3.220255
vt 1.444024 3.186522
vt 1.444024 3.164032
vt 1.477757 3.130298
vt 1.820719 3.164032
vt 1.786985 3.130298
vt 1.309088 3.130298
vt 1.342822 3.164032
vt 0.9998604 3.130298
vt 0.9661266 3.164032
vt 1.309088 3.220255
vt 1.342822 3.186522
vt 1.309088 3.83871
vt 1.342822 3.872444
vt 0.9661266 3.186522
vt 0.9998604 3.220255
vt 0.9661266 3.872444
vt 0.9998604 3.83871
vt 1.786985 3.130298
vt 1.820719 3.164032
vt 1.477757 3.130298
vt 1.444024 3.164032
vn 0 0 -1
vn 0 0 -1
vn 0 0 -1
vn 0 0 -1
vn 0 0 -1
vn 0 0 -1
vn 0 0 -1
vn 0 0 -1
vn 0 0 -1
vn 0 0 -1
vn 0 0 -1
vn 0 0 -1
vn 0 0 -1
vn 0 0 -1
vn 0 0 -1
vn 0 0 -1
vn 0 0 -1
vn 0 0 -1
vn 0 0 -1
vn 0 0 -1
vn 0 0 -1
vn 0 0 -1
vn 0 0 -1
vn 0 0 -1
vn 0 0 -1
vn 0 0 -1
vn 0 0 -1
vn 0 0 -1
vn 0 0 -1
vn 0 0 -1
vn 0 0 -1
vn 0 0 -1
vn 0 0 -1
vn 0 0 -1
vn 0 0 -1
vn 0 0 -1
vn 0 0 -1
vn 0 0 -1
vn 0 0 -1
vn 0 0 -1
vn 0 0 1
vn 0 0 1
vn 0 0 1
vn 0 0 1
vn 0 0 1
vn 0 0 1
vn 0 0 1
vn 0 0 1
vn 0 0 1
vn 0 0 1
vn 0 0 1
vn 0 0 1
vn 0 0 1
vn 0 0 1
vn 0 0 1
vn 0 0 1
vn 0 0 1
vn 0 0 1
vn 0 0 1
vn 0 0 1
vn 0 0 1
vn 0 0 1
vn 0 0 1
vn 0 0 1
vn 0 0 1
vn 0 0 1
vn 0 0 1
vn 0 0 1
vn 0 0 1
vn 0 0 1
vn 0 0 1
vn 0 0 1
vn 0 0 1
vn 0 0 1
vn 0 0 1
vn 0 0 1
vn 0 0 1
vn 0 0 1
vn 0 0 1
vn 0 0 1
vn 1 1.301043E-16 0
vn 1 1.301043E-16 0
vn 1 1.301043E-16 0
vn 1 1.301043E-16 0
vn 0 1 0
vn 0 1 0
vn 0 1 0
vn 0 1 0
vn -1 -1.301043E-16 0
vn -1 -1.301043E-16 0
vn -1 -1.301043E-16 0
vn -1 -1.301043E-16 0
vn 0 -1 0
vn 0 -1 0
vn 0 -1 0
vn 0 -1 0
vn 0 0 1
vn 0 0 1
vn 0 0 1
vn 0 0 1
vn 0 0 1
vn 0 0 1
vn 0 0 1
vn 0 0 1
vn 0 0 1
vn 0 0 1
vn 0 0 1
vn 0 0 1
vn 0 0 1
vn 0 0 1
vn 0 0 1
vn 0 0 1
vn 0 0 -1
vn 0 0 -1
vn 0 0 -1
vn 0 0 -1
vn 0 0 -1
vn 0 0 -1
vn 0 0 -1
vn 0 0 -1
vn 0 0 -1
vn 0 0 -1
vn 0 0 -1
vn 0 0 -1
vn 0 0 -1
vn 0 0 -1
vn 0 0 -1
vn 0 0 -1
vn 0 0.7071068 -0.7071068
vn 0 0.7071068 -0.7071068
vn 0 0.7071068 -0.7071068
vn 0 0.7071068 -0.7071068
vn -0.7071068 -3.774261E-17 -0.7071068
vn -0.7071068 -3.774261E-17 -0.7071068
vn -0.7071068 -3.774261E-17 -0.7071068
vn -0.7071068 -3.774261E-17 -0.7071068
vn 0.7071068 0 -0.7071068
vn 0.7071068 0 -0.7071068
vn 0.7071068 0 -0.7071068
vn 0.7071068 0 -0.7071068
vn -1.30841E-16 -0.7071068 -0.7071068
vn -1.30841E-16 -0.7071068 -0.7071068
vn -1.30841E-16 -0.7071068 -0.7071068
vn -1.30841E-16 -0.7071068 -0.7071068
vn -1.30841E-16 -0.7071068 0.7071068
vn -1.30841E-16 -0.7071068 0.7071068
vn -1.30841E-16 -0.7071068 0.7071068
vn -1.30841E-16 -0.7071068 0.7071068
vn 0.7071068 0 0.7071068
vn 0.7071068 0 0.7071068
vn 0.7071068 0 0.7071068
vn 0.7071068 0 0.7071068
vn -0.7071068 -3.774261E-17 0.7071068
vn -0.7071068 -3.774261E-17 0.7071068
vn -0.7071068 -3.774261E-17 0.7071068
vn -0.7071068 -3.774261E-17 0.7071068
vn 0 0.7071068 0.7071068
vn 0 0.7071068 0.7071068
vn 0 0.7071068 0.7071068
vn 0 0.7071068 0.7071068
vn 0 -0.7071068 -0.7071068
vn 0 -0.7071068 -0.7071068
vn 0 -0.7071068 -0.7071068
vn 0 -0.7071068 -0.7071068
vn 0.7071068 3.774261E-17 -0.7071068
vn 0.7071068 3.774261E-17 -0.7071068
vn 0.7071068 3.774261E-17 -0.7071068
vn 0.7071068 3.774261E-17 -0.7071068
vn -0.7071068 0 -0.7071068
vn -0.7071068 0 -0.7071068
vn -0.7071068 0 -0.7071068
vn -0.7071068 0 -0.7071068
vn 1.30841E-16 0.7071068 -0.7071068
vn 1.30841E-16 0.7071068 -0.7071068
vn 1.30841E-16 0.7071068 -0.7071068
vn 1.30841E-16 0.7071068 -0.7071068
vn -1.30841E-16 0.7071068 -0.7071068
vn -1.30841E-16 0.7071068 -0.7071068
vn -1.30841E-16 0.7071068 -0.7071068
vn -1.30841E-16 0.7071068 -0.7071068
vn 0.7071068 0 -0.7071068
vn 0.7071068 0 -0.7071068
vn 0.7071068 0 -0.7071068
vn 0.7071068 0 -0.7071068
vn -0.7071068 3.774261E-17 -0.7071068
vn -0.7071068 3.774261E-17 -0.7071068
vn -0.7071068 3.774261E-17 -0.7071068
vn -0.7071068 3.774261E-17 -0.7071068
vn 0 -0.7071068 -0.7071068
vn 0 -0.7071068 -0.7071068
vn 0 -0.7071068 -0.7071068
vn 0 -0.7071068 -0.7071068
vn 1.30841E-16 -0.7071068 -0.7071068
vn 1.30841E-16 -0.7071068 -0.7071068
vn 1.30841E-16 -0.7071068 -0.7071068
vn 1.30841E-16 -0.7071068 -0.7071068
vn -0.7071068 0 -0.7071068
vn -0.7071068 0 -0.7071068
vn -0.7071068 0 -0.7071068
vn -0.7071068 0 -0.7071068
vn 0.7071068 -3.774261E-17 -0.7071068
vn 0.7071068 -3.774261E-17 -0.7071068
vn 0.7071068 -3.774261E-17 -0.7071068
vn 0.7071068 -3.774261E-17 -0.7071068
vn 0 0.7071068 -0.7071068
vn 0 0.7071068 -0.7071068
vn 0 0.7071068 -0.7071068
vn 0 0.7071068 -0.7071068
vn 0 0.7071068 0.7071068
vn 0 0.7071068 0.7071068
vn 0 0.7071068 0.7071068
vn 0 0.7071068 0.7071068
vn 0.7071068 -3.774261E-17 0.7071068
vn 0.7071068 -3.774261E-17 0.7071068
vn 0.7071068 -3.774261E-17 0.7071068
vn 0.7071068 -3.774261E-17 0.7071068
vn -0.7071068 0 0.7071068
vn -0.7071068 0 0.7071068
vn -0.7071068 0 0.7071068
vn -0.7071068 0 0.7071068
vn 1.30841E-16 -0.7071068 0.7071068
vn 1.30841E-16 -0.7071068 0.7071068
vn 1.30841E-16 -0.7071068 0.7071068
vn 1.30841E-16 -0.7071068 0.7071068
vn 1.30841E-16 0.7071068 0.7071068
vn 1.30841E-16 0.7071068 0.7071068
vn 1.30841E-16 0.7071068 0.7071068
vn 1.30841E-16 0.7071068 0.7071068
vn -0.7071068 0 0.7071068
vn -0.7071068 0 0.7071068
vn -0.7071068 0 0.7071068
vn -0.7071068 0 0.7071068
vn 0.7071068 3.774261E-17 0.7071068
vn 0.7071068 3.774261E-17 0.7071068
vn 0.7071068 3.774261E-17 0.7071068
vn 0.7071068 3.774261E-17 0.7071068
vn 0 -0.7071068 0.7071068
vn 0 -0.7071068 0.7071068
vn 0 -0.7071068 0.7071068
vn 0 -0.7071068 0.7071068
vn 0 -0.7071068 0.7071068
vn 0 -0.7071068 0.7071068
vn 0 -0.7071068 0.7071068
vn 0 -0.7071068 0.7071068
vn -0.7071068 3.774261E-17 0.7071068
vn -0.7071068 3.774261E-17 0.7071068
vn -0.7071068 3.774261E-17 0.7071068
vn -0.7071068 3.774261E-17 0.7071068
vn 0.7071068 0 0.7071068
vn 0.7071068 0 0.7071068
vn 0.7071068 0 0.7071068
vn 0.7071068 0 0.7071068
vn -1.30841E-16 0.7071068 0.7071068
vn -1.30841E-16 0.7071068 0.7071068
vn -1.30841E-16 0.7071068 0.7071068
vn -1.30841E-16 0.7071068 0.7071068
usemtl satin_finished_maple_2d
f 1/1/1 2/2/2 3/3/3
f 2/2/2 4/4/4 3/3/3
f 3/3/3 4/4/4 5/5/5
f 6/6/6 7/7/7 8/8/8
f 9/9/9 10/10/10 11/11/11
f 12/12/12 13/13/13 14/14/14
f 13/13/13 15/15/15 14/14/14
f 14/14/14 15/15/15 16/16/16
f 15/15/15 17/17/17 16/16/16
f 16/16/16 17/17/17 18/18/18
f 19/19/19 20/20/20 21/21/21
f 20/20/20 22/22/22 21/21/21
f 23/23/23 24/24/24 25/25/25
f 24/24/24 26/26/26 25/25/25
f 25/25/25 26/26/26 27/27/27
f 28/28/28 29/29/29 30/30/30
f 29/29/29 31/31/31 30/30/30
f 30/30/30 31/31/31 32/32/32
f 31/31/31 33/33/33 32/32/32
f 32/32/32 33/33/33 34/34/34
f 33/33/33 35/35/35 34/34/34
f 34/34/34 35/35/35 36/36/36
f 35/35/35 37/37/37 36/36/36
f 36/36/36 37/37/37 38/38/38
f 37/37/37 39/39/39 38/38/38
f 38/38/38 39/39/39 40/40/40
f 41/41/41 42/42/42 43/43/43
f 44/44/44 45/45/45 46/46/46
f 45/45/45 47/47/47 46/46/46
f 48/48/48 49/49/49 50/50/50
f 51/51/51 52/52/52 53/53/53
f 52/52/52 54/54/54 53/53/53
f 53/53/53 54/54/54 55/55/55
f 54/54/54 56/56/56 55/55/55
f 55/55/55 56/56/56 57/57/57
f 58/58/58 59/59/59 60/60/60
f 59/59/59 61/61/61 60/60/60
f 60/60/60 61/61/61 62/62/62
f 61/61/61 63/63/63 62/62/62
f 62/62/62 63/63/63 64/64/64
f 65/65/65 66/66/66 67/67/67
f 66/66/66 68/68/68 67/67/67
f 67/67/67 68/68/68 69/69/69
f 68/68/68 70/70/70 69/69/69
f 69/69/69 70/70/70 71/71/71
f 72/72/72 73/73/73 74/74/74
f 73/73/73 75/75/75 74/74/74
f 74/74/74 75/75/75 76/76/76
f 75/75/75 77/77/77 76/76/76
f 76/76/76 77/77/77 78/78/78
f 77/77/77 79/79/79 78/78/78
f 78/78/78 79/79/79 80/80/80
f 81/81/81 82/82/82 83/83/83
f 82/82/82 84/84/84 83/83/83
f 85/85/85 86/86/86 87/87/87
f 86/86/86 88/88/88 87/87/87
f 89/89/89 90/90/90 91/91/91
f 90/90/90 92/92/92 91/91/91
f 93/93/93 94/94/94 95/95/95
f 94/94/94 96/96/96 95/95/95
f 97/97/97 98/98/98 99/99/99
f 98/98/98 100/100/100 99/99/99
f 101/101/101 102/102/102 103/103/103
f 102/102/102 104/104/104 103/103/103
f 105/105/105 106/106/106 107/107/107
f 106/106/106 108/108/108 107/107/107
f 109/109/109 110/110/110 111/111/111
f 110/110/110 112/112/112 111/111/111
f 113/113/113 114/114/114 115/115/115
f 114/114/114 116/116/116 115/115/115
f 117/117/117 118/118/118 119/119/119
f 118/118/118 120/120/120 119/119/119
f 121/121/121 122/122/122 123/123/123
f 122/122/122 124/124/124 123/123/123
f 125/125/125 126/126/126 127/127/127
f 126/126/126 128/128/128 127/127/127
f 129/129/129 130/130/130 131/131/131
f 130/130/130 132/132/132 131/131/131
f 133/133/133 134/134/134 135/135/135
f 134/134/134 136/136/136 135/135/135
f 137/137/137 138/138/138 139/139/139
f 138/138/138 140/140/140 139/139/139
f 141/141/141 142/142/142 143/143/143
f 142/142/142 144/144/144 143/143/143
f 145/145/145 146/146/146 147/147/147
f 146/146/146 148/148/148 147/147/147
f 149/149/149 150/150/150 151/151/151
f 150/150/150 152/152/152 151/151/151
f 153/153/153 154/154/154 155/155/155
f 154/154/154 156/156/156 155/155/155
f 157/157/157 158/158/158 159/159/159
f 158/158/158 160/160/160 159/159/159
f 161/161/161 162/162/162 163/163/163
f 162/162/162 164/164/164 163/163/163
f 165/165/165 166/166/166 167/167/167
f 166/166/166 168/168/168 167/167/167
f 169/169/169 170/170/170 171/171/171
f 170/170/170 172/172/172 171/171/171
f 173/173/173 174/174/174 175/175/175
f 174/174/174 176/176/176 175/175/175
f 177/177/177 178/178/178 179/179/179
f 178/178/178 180/180/180 179/179/179
f 181/181/181 182/182/182 183/183/183
f 182/182/182 184/184/184 183/183/183
f 185/185/185 186/186/186 187/187/187
f 186/186/186 188/188/188 187/187/187
f 189/189/189 190/190/190 191/191/191
f 190/190/190 192/192/192 191/191/191
f 193/193/193 194/194/194 195/195/195
f 194/194/194 196/196/196 195/195/195
f 197/197/197 198/198/198 199/199/199
f 198/198/198 200/200/200 199/199/199
f 201/201/201 202/202/202 203/203/203
f 202/202/202 204/204/204 203/203/203
f 205/205/205 206/206/206 207/207/207
f 206/206/206 208/208/208 207/207/207
f 209/209/209 210/210/210 211/211/211
f 210/210/210 212/212/212 211/211/211
f 213/213/213 214/214/214 215/215/215
f 214/214/214 216/216/216 215/215/215
f 217/217/217 218/218/218 219/219/219
f 218/218/218 220/220/220 219/219/219
f 221/221/221 222/222/222 223/223/223
f 222/222/222 224/224/224 223/223/223
f 225/225/225 226/226/226 227/227/227
f 226/226/226 228/228/228 227/227/227
f 229/229/229 230/230/230 231/231/231
f 230/230/230 232/232/232 231/231/231
f 233/233/233 234/234/234 235/235/235
f 234/234/234 236/236/236 235/235/235
f 237/237/237 238/238/238 239/239/239
f 238/238/238 240/240/240 239/239/239
f 241/241/241 242/242/242 243/243/243
f 242/242/242 244/244/244 243/243/243
f 245/245/245 246/246/246 247/247/247
f 246/246/246 248/248/248 247/247/247
f 249/249/249 250/250/250 251/251/251
f 250/250/250 252/252/252 251/251/251
f 253/253/253 254/254/254 255/255/255
f 254/254/254 256/256/256 255/255/255
##########################

