#
# Bunkspeed OBJ File
# http://www.bunkspeed.com
#
mtllib floor.mtl

##########################
g |laminate3_2d
##########################
v 0.5 0.01 -0.45
v 0.5 0.01 0.45
v 0.5 0 -0.45
v 0.5 0 0.45
v -0.5 0.01 -0.45
v 0.5 0.01 -0.45
v -0.5 0 -0.45
v 0.5 0 -0.45
v -0.5 0.01 0.45
v -0.5 0.01 -0.45
v -0.5 0 0.45
v -0.5 0 -0.45
v 0.5 0.01 0.45
v -0.5 0.01 0.45
v 0.5 0 0.45
v -0.5 0 0.45
v -0.5 0.01 -0.45
v -0.5 0.01 0.45
v 0.5 0.01 -0.45
v 0.5 0.01 0.45
v -0.5 0 0.45
v -0.5 0 -0.45
v 0.5 0 0.45
v 0.5 0 -0.45
vt 15.5903 17.00178
vt 15.5903 18.10434
vt 15.57805 17.00178
vt 15.57805 18.10434
vt 16.1967 17.55918
vt 14.97164 17.55918
vt 16.1967 17.54693
vt 14.97164 17.54693
vt 15.57805 18.10434
vt 15.57805 17.00178
vt 15.5903 18.10434
vt 15.5903 17.00178
vt 16.1967 17.55918
vt 14.97164 17.55918
vt 16.1967 17.54693
vt 14.97164 17.54693
vt 16.1967 17.00178
vt 16.1967 18.10434
vt 14.97164 17.00178
vt 14.97164 18.10434
vt 14.97164 18.10434
vt 14.97164 17.00178
vt 16.1967 18.10434
vt 16.1967 17.00178
vn 1 0 -1.233581E-16
vn 1 0 -1.233581E-16
vn 1 0 -1.233581E-16
vn 1 0 -1.233581E-16
vn 0 0 -1
vn 0 0 -1
vn 0 0 -1
vn 0 0 -1
vn -1 0 1.233581E-16
vn -1 0 1.233581E-16
vn -1 0 1.233581E-16
vn -1 0 1.233581E-16
vn 0 0 1
vn 0 0 1
vn 0 0 1
vn 0 0 1
vn 0 1 0
vn 0 1 0
vn 0 1 0
vn 0 1 0
vn 0 -1 0
vn 0 -1 0
vn 0 -1 0
vn 0 -1 0
usemtl laminate3_2d
f 1/1/1 2/2/2 3/3/3
f 2/2/2 4/4/4 3/3/3
f 5/5/5 6/6/6 7/7/7
f 6/6/6 8/8/8 7/7/7
f 9/9/9 10/10/10 11/11/11
f 10/10/10 12/12/12 11/11/11
f 13/13/13 14/14/14 15/15/15
f 14/14/14 16/16/16 15/15/15
f 17/17/17 18/18/18 19/19/19
f 18/18/18 20/20/20 19/19/19
f 21/21/21 22/22/22 23/23/23
f 22/22/22 24/24/24 23/23/23
##########################

