#
# Bunkspeed OBJ File
# http://www.bunkspeed.com
#
mtllib home.mtl

##########################
g |Assem1|Root|wall-1|old_english_brick_2d
##########################
v 0.4494097 0.2103 -0.3340965
v 0.4594097 0.2103 -0.3440965
v -0.5305904 0.2103 -0.3340965
v -0.5405903 0.2103 -0.3440965
v -0.5305904 0.2103 0.3459035
v -0.5405903 0.2103 0.3559035
v 0.4494097 0.2103 0.3459035
v 0.4594097 0.2103 0.3559035
v 0.4494097 0.2103 -0.3340965
v 0.4594097 0.2103 -0.3440965
v 0.3094097 0.0103 0.3459035
v 0.3094097 0.0103 0.3559035
v -0.5305904 0.0103 0.3459035
v -0.5405903 0.0103 0.3559035
v -0.5305904 0.0103 -0.3340965
v -0.5405903 0.0103 -0.3440965
v 0.4494097 0.0103 -0.3340965
v 0.4594097 0.0103 -0.3440965
v 0.4494097 0.0103 0.3459035
v 0.4594097 0.0103 0.3559035
v 0.4094096 0.0103 0.3459035
v 0.4094096 0.0103 0.3559035
v 0.4594097 0.2103 -0.3440965
v 0.4594097 0.2103 0.3559035
v 0.4594097 0.0103 -0.3440965
v 0.4594097 0.0103 0.3559035
v -0.5405903 0.2103 -0.3440965
v 0.4594097 0.2103 -0.3440965
v -0.5405903 0.0103 -0.3440965
v 0.4594097 0.0103 -0.3440965
v -0.5405903 0.2103 0.3559035
v -0.5405903 0.2103 -0.3440965
v -0.5405903 0.0103 0.3559035
v -0.5405903 0.0103 -0.3440965
v 0.4094096 0.0103 0.3559035
v 0.4594097 0.0103 0.3559035
v 0.4094096 0.1703 0.3559035
v 0.4594097 0.2103 0.3559035
v 0.3094097 0.1703 0.3559035
v -0.5405903 0.2103 0.3559035
v 0.3094097 0.0103 0.3559035
v -0.5405903 0.0103 0.3559035
v 0.4494097 0.2103 0.3459035
v 0.4494097 0.2103 -0.3340965
v 0.4494097 0.0103 0.3459035
v 0.4494097 0.0103 -0.3340965
v 0.4494097 0.2103 -0.3340965
v -0.5305904 0.2103 -0.3340965
v 0.4494097 0.0103 -0.3340965
v -0.5305904 0.0103 -0.3340965
v -0.5305904 0.2103 -0.3340965
v -0.5305904 0.2103 0.3459035
v -0.5305904 0.0103 -0.3340965
v -0.5305904 0.0103 0.3459035
v 0.3094097 0.1703 0.3459035
v 0.3094097 0.0103 0.3459035
v -0.5305904 0.0103 0.3459035
v 0.4494097 0.2103 0.3459035
v 0.4494097 0.0103 0.3459035
v 0.4094096 0.0103 0.3459035
v 0.4094096 0.0103 0.3459035
v 0.4094096 0.1703 0.3459035
v 0.4494097 0.2103 0.3459035
v 0.3094097 0.1703 0.3459035
v -0.5305904 0.2103 0.3459035
v -0.5305904 0.0103 0.3459035
v 0.4094096 0.0103 0.3559035
v 0.4094096 0.1703 0.3559035
v 0.4094096 0.0103 0.3459035
v 0.4094096 0.1703 0.3459035
v 0.3094097 0.1703 0.3559035
v 0.3094097 0.0103 0.3559035
v 0.3094097 0.1703 0.3459035
v 0.3094097 0.0103 0.3459035
v 0.4094096 0.1703 0.3559035
v 0.3094097 0.1703 0.3559035
v 0.4094096 0.1703 0.3459035
v 0.3094097 0.1703 0.3459035
vt -2.589986 0.5282195
vt -2.679729 0.4384758
vt 6.204886 0.5282195
vt 6.29463 0.4384758
vt 6.204886 6.630784
vt 6.29463 6.720528
vt -2.589986 6.630784
vt -2.679729 6.720528
vt -2.589986 0.5282195
vt -2.679729 0.4384758
vt 4.948476 6.630784
vt 4.948476 6.720528
vt -2.589986 6.630784
vt -2.679729 6.720528
vt -2.589986 0.5282195
vt -2.679729 0.4384758
vt 6.204886 0.5282195
vt 6.29463 0.4384758
vt 6.204886 6.630784
vt 6.29463 6.720528
vt 5.845912 6.630784
vt 5.845912 6.720528
vt 3.602322 0.4384758
vt 3.602322 6.720528
vt 1.80745 0.4384758
vt 1.80745 6.720528
vt 6.29463 5.374373
vt -2.679729 5.374373
vt 6.29463 3.579502
vt -2.679729 3.579502
vt 0.01257849 6.720528
vt 0.01257849 0.4384758
vt 1.80745 6.720528
vt 1.80745 0.4384758
vt 5.845912 3.579502
vt 6.29463 3.579502
vt 5.845912 5.015399
vt 6.29463 5.374373
vt 4.948476 5.015399
vt -2.679729 5.374373
vt 4.948476 3.579502
vt -2.679729 3.579502
vt 0.01257849 6.630784
vt 0.01257849 0.5282195
vt 1.80745 6.630784
vt 1.80745 0.5282195
vt 6.204886 5.374373
vt -2.589986 5.374373
vt 6.204886 3.579502
vt -2.589986 3.579502
vt 3.602322 0.5282195
vt 3.602322 6.630784
vt 1.80745 0.5282195
vt 1.80745 6.630784
vt -1.333575 5.015399
vt -1.333575 3.579502
vt 6.204886 3.579502
vt -2.589986 5.374373
vt -2.589986 3.579502
vt -2.231011 3.579502
vt -2.231011 3.579502
vt -2.231011 5.015399
vt -2.589986 5.374373
vt -1.333575 5.015399
vt 6.204886 5.374373
vt 6.204886 3.579502
vt 1.80745 6.720528
vt 0.3715528 6.720528
vt 1.80745 6.630784
vt 0.3715528 6.630784
vt 3.243348 6.720528
vt 1.80745 6.720528
vt 3.243348 6.630784
vt 1.80745 6.630784
vt 5.845912 6.720528
vt 4.948476 6.720528
vt 5.845912 6.630784
vt 4.948476 6.630784
vn 0 1 0
vn 0 1 0
vn 0 1 0
vn 0 1 0
vn 0 1 0
vn 0 1 0
vn 0 1 0
vn 0 1 0
vn 0 1 0
vn 0 1 0
vn 0 -1 0
vn 0 -1 0
vn 0 -1 0
vn 0 -1 0
vn 0 -1 0
vn 0 -1 0
vn 0 -1 0
vn 0 -1 0
vn 0 -1 0
vn 0 -1 0
vn 0 -1 0
vn 0 -1 0
vn 1 0 0
vn 1 0 0
vn 1 0 0
vn 1 0 0
vn 0 0 -1
vn 0 0 -1
vn 0 0 -1
vn 0 0 -1
vn -1 0 0
vn -1 0 0
vn -1 0 0
vn -1 0 0
vn 0 0 1
vn 0 0 1
vn 0 0 1
vn 0 0 1
vn 0 0 1
vn 0 0 1
vn 0 0 1
vn 0 0 1
vn -1 0 0
vn -1 0 0
vn -1 0 0
vn -1 0 0
vn 0 0 1
vn 0 0 1
vn 0 0 1
vn 0 0 1
vn 1 0 0
vn 1 0 0
vn 1 0 0
vn 1 0 0
vn 0 0 -1
vn 0 0 -1
vn 0 0 -1
vn 0 0 -1
vn 0 0 -1
vn 0 0 -1
vn 0 0 -1
vn 0 0 -1
vn 0 0 -1
vn 0 0 -1
vn 0 0 -1
vn 0 0 -1
vn -1 3.469447E-16 0
vn -1 3.469447E-16 0
vn -1 3.469447E-16 0
vn -1 3.469447E-16 0
vn 1 0 0
vn 1 0 0
vn 1 0 0
vn 1 0 0
vn 0 -1 0
vn 0 -1 0
vn 0 -1 0
vn 0 -1 0
usemtl old_english_brick_2d
f 1/1/1 2/2/2 3/3/3
f 2/2/2 4/4/4 3/3/3
f 3/3/3 4/4/4 5/5/5
f 4/4/4 6/6/6 5/5/5
f 5/5/5 6/6/6 7/7/7
f 6/6/6 8/8/8 7/7/7
f 7/7/7 8/8/8 9/9/9
f 8/8/8 10/10/10 9/9/9
f 11/11/11 12/12/12 13/13/13
f 12/12/12 14/14/14 13/13/13
f 13/13/13 14/14/14 15/15/15
f 14/14/14 16/16/16 15/15/15
f 15/15/15 16/16/16 17/17/17
f 16/16/16 18/18/18 17/17/17
f 17/17/17 18/18/18 19/19/19
f 18/18/18 20/20/20 19/19/19
f 19/19/19 20/20/20 21/21/21
f 20/20/20 22/22/22 21/21/21
f 23/23/23 24/24/24 25/25/25
f 24/24/24 26/26/26 25/25/25
f 27/27/27 28/28/28 29/29/29
f 28/28/28 30/30/30 29/29/29
f 31/31/31 32/32/32 33/33/33
f 32/32/32 34/34/34 33/33/33
f 35/35/35 36/36/36 37/37/37
f 36/36/36 38/38/38 37/37/37
f 37/37/37 38/38/38 39/39/39
f 38/38/38 40/40/40 39/39/39
f 39/39/39 40/40/40 41/41/41
f 40/40/40 42/42/42 41/41/41
f 43/43/43 44/44/44 45/45/45
f 44/44/44 46/46/46 45/45/45
f 47/47/47 48/48/48 49/49/49
f 48/48/48 50/50/50 49/49/49
f 51/51/51 52/52/52 53/53/53
f 52/52/52 54/54/54 53/53/53
f 55/55/55 56/56/56 57/57/57
f 58/58/58 59/59/59 60/60/60
f 61/61/61 62/62/62 63/63/63
f 62/62/62 64/64/64 63/63/63
f 63/63/63 64/64/64 65/65/65
f 64/64/64 66/66/66 65/65/65
f 67/67/67 68/68/68 69/69/69
f 68/68/68 70/70/70 69/69/69
f 71/71/71 72/72/72 73/73/73
f 72/72/72 74/74/74 73/73/73
f 75/75/75 76/76/76 77/77/77
f 76/76/76 78/78/78 77/77/77
##########################


##########################
g |Assem1|Root|floor-1|laminate3_2d
##########################
v 0.4594097 0.0103 -0.3440965
v 0.4594097 0.0103 0.5559035
v 0.4594097 0.0002999976 -0.3440965
v 0.4594097 0.0002999976 0.5559035
v -0.5405903 0.0103 -0.3440965
v 0.4594097 0.0103 -0.3440965
v -0.5405903 0.0002999976 -0.3440965
v 0.4594097 0.0002999976 -0.3440965
v -0.5405903 0.0103 0.5559035
v -0.5405903 0.0103 -0.3440965
v -0.5405903 0.0002999976 0.5559035
v -0.5405903 0.0002999976 -0.3440965
v 0.4594097 0.0103 0.5559035
v -0.5405903 0.0103 0.5559035
v 0.4594097 0.0002999976 0.5559035
v -0.5405903 0.0002999976 0.5559035
v -0.5405903 0.0103 -0.3440965
v -0.5405903 0.0103 0.5559035
v 0.4594097 0.0103 -0.3440965
v 0.4594097 0.0103 0.5559035
v -0.5405903 0.0002999976 0.5559035
v -0.5405903 0.0002999976 -0.3440965
v 0.4594097 0.0002999976 0.5559035
v 0.4594097 0.0002999976 -0.3440965
vt 15.5903 17.00178
vt 15.5903 18.10434
vt 15.57805 17.00178
vt 15.57805 18.10434
vt 16.1967 17.55918
vt 14.97164 17.55918
vt 16.1967 17.54693
vt 14.97164 17.54693
vt 15.57805 18.10434
vt 15.57805 17.00178
vt 15.5903 18.10434
vt 15.5903 17.00178
vt 16.1967 17.55918
vt 14.97164 17.55918
vt 16.1967 17.54693
vt 14.97164 17.54693
vt 16.1967 17.00178
vt 16.1967 18.10434
vt 14.97164 17.00178
vt 14.97164 18.10434
vt 14.97164 18.10434
vt 14.97164 17.00178
vt 16.1967 18.10434
vt 16.1967 17.00178
vn 1 0 -1.233581E-16
vn 1 0 -1.233581E-16
vn 1 0 -1.233581E-16
vn 1 0 -1.233581E-16
vn 0 0 -1
vn 0 0 -1
vn 0 0 -1
vn 0 0 -1
vn -1 0 1.233581E-16
vn -1 0 1.233581E-16
vn -1 0 1.233581E-16
vn -1 0 1.233581E-16
vn 0 0 1
vn 0 0 1
vn 0 0 1
vn 0 0 1
vn 0 1 0
vn 0 1 0
vn 0 1 0
vn 0 1 0
vn 0 -1 0
vn 0 -1 0
vn 0 -1 0
vn 0 -1 0
usemtl laminate3_2d
f 79/79/79 80/80/80 81/81/81
f 80/80/80 82/82/82 81/81/81
f 83/83/83 84/84/84 85/85/85
f 84/84/84 86/86/86 85/85/85
f 87/87/87 88/88/88 89/89/89
f 88/88/88 90/90/90 89/89/89
f 91/91/91 92/92/92 93/93/93
f 92/92/92 94/94/94 93/93/93
f 95/95/95 96/96/96 97/97/97
f 96/96/96 98/98/98 97/97/97
f 99/99/99 100/100/100 101/101/101
f 100/100/100 102/102/102 101/101/101
##########################


##########################
g |Assem1|Root|ledge-2|flemish_brick_2d
##########################
v -0.5405903 0.1703 0.3559035
v -0.5405903 0.2103 0.3559035
v 0.4594097 0.1703 0.3559035
v 0.4594097 0.2103 0.3559035
v -0.5405903 0.1703 0.4559035
v -0.5405903 0.1703 0.3559035
v 0.4594097 0.1703 0.4559035
v 0.4594097 0.1703 0.3559035
v -0.5405903 0.2103 0.3559035
v -0.5405903 0.1703 0.4559035
v 0.4594097 0.2103 0.3559035
v 0.4594097 0.1703 0.4559035
v -0.5405903 0.1703 0.3559035
v -0.5405903 0.1703 0.4559035
v -0.5405903 0.2103 0.3559035
v 0.4594097 0.2103 0.3559035
v 0.4594097 0.1703 0.4559035
v 0.4594097 0.1703 0.3559035
vt 6.595504 -0.5415039
vt 6.595504 -0.1415039
vt -3.404496 -0.5415039
vt -3.404496 -0.1415039
vt 6.595504 -0.5415039
vt 6.595504 -0.5415039
vt -3.404496 -0.5415039
vt -3.404496 -0.5415039
vt 6.595504 -0.1415039
vt 6.595504 -0.5415039
vt -3.404496 -0.1415039
vt -3.404496 -0.5415039
vt 6.595504 -0.5415039
vt 6.595504 -0.5415039
vt 6.595504 -0.1415039
vt -3.404496 -0.1415039
vt -3.404496 -0.5415039
vt -3.404496 -0.5415039
vn -7.036496E-17 -1.696861E-16 -1
vn -7.036496E-17 -1.696861E-16 -1
vn -7.036496E-17 -1.696861E-16 -1
vn -7.036496E-17 -1.696861E-16 -1
vn -1.665335E-16 -1 3.533831E-16
vn -1.665335E-16 -1 3.533831E-16
vn -1.665335E-16 -1 3.533831E-16
vn -1.665335E-16 -1 3.533831E-16
vn 1.807553E-16 0.9284767 0.3713907
vn 1.807553E-16 0.9284767 0.3713907
vn 1.807553E-16 0.9284767 0.3713907
vn 1.807553E-16 0.9284767 0.3713907
vn -1 -1.665335E-16 7.036496E-17
vn -1 -1.665335E-16 7.036496E-17
vn -1 -1.665335E-16 7.036496E-17
vn 1 1.665335E-16 -7.036496E-17
vn 1 1.665335E-16 -7.036496E-17
vn 1 1.665335E-16 -7.036496E-17
usemtl flemish_brick_2d
f 103/103/103 104/104/104 105/105/105
f 104/104/104 106/106/106 105/105/105
f 107/107/107 108/108/108 109/109/109
f 108/108/108 110/110/110 109/109/109
f 111/111/111 112/112/112 113/113/113
f 112/112/112 114/114/114 113/113/113
f 115/115/115 116/116/116 117/117/117
f 118/118/118 119/119/119 120/120/120
##########################

