#
# Bunkspeed OBJ File
# http://www.bunkspeed.com
#
mtllib ledge.mtl

##########################
g |flemish_brick_2d
##########################
v 1 -2.486579E-32 0
v 1 0.04 -7.347881E-18
v 0 0 0
v -9.946315E-34 0.04 -7.347881E-18
v 1 -2.486579E-32 -0.1
v 1 -2.486579E-32 0
v 0 0 -0.1
v 0 0 0
v 1 0.04 1.387779E-17
v 1 -2.486579E-32 -0.1
v -4.440892E-16 0.04 1.387779E-17
v -4.440892E-16 0 -0.1
v 1 -2.486579E-32 0
v 1 -2.486579E-32 -0.1
v 1 0.04 -7.347881E-18
v -9.946315E-34 0.04 -7.347881E-18
v 0 0 -0.1
v 0 0 0
vt 6.595504 -0.5415039
vt 6.595504 -0.1415039
vt -3.404496 -0.5415039
vt -3.404496 -0.1415039
vt 6.595504 -0.5415039
vt 6.595504 -0.5415039
vt -3.404496 -0.5415039
vt -3.404496 -0.5415039
vt 6.595504 -0.1415039
vt 6.595504 -0.5415039
vt -3.404496 -0.1415039
vt -3.404496 -0.5415039
vt 6.595504 -0.5415039
vt 6.595504 -0.5415039
vt 6.595504 -0.1415039
vt -3.404496 -0.1415039
vt -3.404496 -0.5415039
vt -3.404496 -0.5415039
vn 0 1.83697E-16 1
vn 0 1.83697E-16 1
vn 0 1.83697E-16 1
vn 0 1.83697E-16 1
vn -2.486579E-32 -1 0
vn -2.486579E-32 -1 0
vn -2.486579E-32 -1 0
vn -2.486579E-32 -1 0
vn 2.30873E-32 0.9284767 -0.3713907
vn 2.30873E-32 0.9284767 -0.3713907
vn 2.30873E-32 0.9284767 -0.3713907
vn 2.30873E-32 0.9284767 -0.3713907
vn 1 2.486579E-32 0
vn 1 2.486579E-32 0
vn 1 2.486579E-32 0
vn -1 -2.486579E-32 0
vn -1 -2.486579E-32 0
vn -1 -2.486579E-32 0
usemtl flemish_brick_2d
f 1/1/1 2/2/2 3/3/3
f 2/2/2 4/4/4 3/3/3
f 5/5/5 6/6/6 7/7/7
f 6/6/6 8/8/8 7/7/7
f 9/9/9 10/10/10 11/11/11
f 10/10/10 12/12/12 11/11/11
f 13/13/13 14/14/14 15/15/15
f 16/16/16 17/17/17 18/18/18
##########################

