#
# Bunkspeed OBJ File
# http://www.bunkspeed.com
#
mtllib ./sponge.mtl

##########################
g |Part1|Root|color
##########################
v 0.07 0.0002999995 -0.03941976
v -0.0700001 0.0002999995 -0.03941976
v 0.07 0.04972725 -0.03941976
v -0.0700001 0.04972725 -0.03941976
v 0.07 0.0002999995 0.03941976
v -0.0700001 0.0002999995 0.03941976
v 0.07 0.0002999995 -0.03941976
v -0.0700001 0.0002999995 -0.03941976
v 0.07 0.04972725 0.03941976
v -0.0700001 0.04972725 0.03941976
v 0.07 0.0002999995 0.03941976
v -0.0700001 0.0002999995 0.03941976
v 0.07 0.04972725 -0.03941976
v -0.0700001 0.04972725 -0.03941976
v 0.07 0.04972725 0.03941976
v -0.0700001 0.04972725 0.03941976
v -0.0700001 0.0002999995 0.03941976
v -0.0700001 0.04972725 0.03941976
v -0.0700001 0.0002999995 -0.03941976
v -0.0700001 0.04972725 -0.03941976
v 0.07 0.04972725 0.03941976
v 0.07 0.0002999995 0.03941976
v 0.07 0.04972725 -0.03941976
v 0.07 0.0002999995 -0.03941976
vt 0 0.3234743
vt 0.9999999 0.3234743
vt 0 0.6765257
vt 0.9999999 0.6765257
vt 0 0.2184305
vt 0.9999999 0.2184305
vt 0 0.7815695
vt 0.9999999 0.7815695
vt 1 0.6765257
vt 5.960464E-08 0.6765257
vt 1 0.3234743
vt 5.960464E-08 0.3234743
vt 1 0.7815695
vt 5.960464E-08 0.7815695
vt 1 0.2184305
vt 5.960464E-08 0.2184305
vt 0.7815695 0.3234743
vt 0.7815695 0.6765257
vt 0.2184305 0.3234743
vt 0.2184305 0.6765257
vt 0.2184305 0.6765257
vt 0.2184305 0.3234743
vt 0.7815695 0.6765257
vt 0.7815695 0.3234743
vn 0 0 -1
vn 0 0 -1
vn 0 0 -1
vn 0 0 -1
vn 0 -1 0
vn 0 -1 0
vn 0 -1 0
vn 0 -1 0
vn 0 0 1
vn 0 0 1
vn 0 0 1
vn 0 0 1
vn 0 1 0
vn 0 1 0
vn 0 1 0
vn 0 1 0
vn -1 0 0
vn -1 0 0
vn -1 0 0
vn -1 0 0
vn 1 0 0
vn 1 0 0
vn 1 0 0
vn 1 0 0
usemtl color
f 1/1/1 2/2/2 3/3/3
f 2/2/2 4/4/4 3/3/3
f 5/5/5 6/6/6 7/7/7
f 6/6/6 8/8/8 7/7/7
f 9/9/9 10/10/10 11/11/11
f 10/10/10 12/12/12 11/11/11
f 13/13/13 14/14/14 15/15/15
f 14/14/14 16/16/16 15/15/15
f 17/17/17 18/18/18 19/19/19
f 18/18/18 20/20/20 19/19/19
f 21/21/21 22/22/22 23/23/23
f 22/22/22 24/24/24 23/23/23
##########################

